<?xml version="1.0" encoding="utf-8"?>
<!-- Generator: Adobe Illustrator 18.1.1, SVG Export Plug-In . SVG Version: 6.00 Build 0)  -->
<svg version="1.1" id="Layer_1" xmlns="http://www.w3.org/2000/svg" xmlns:xlink="http://www.w3.org/1999/xlink" x="0px" y="0px"
	 viewBox="0 0 96 96" enable-background="new 0 0 96 96" xml:space="preserve">
<path fill="#FFFFFF" d="M96,44c0,18.5-14,33.8-32,35.8v-8.1C77.6,69.8,88,58.1,88,44c0-15.5-12.5-28-28-28
	c-14.1,0-25.8,10.4-27.7,24H24c-8.8,0-16,7.2-16,16c0,6.6,4,12.3,9.8,14.7c1.9,0.8,4,1.3,6.2,1.3h16v8H24.1c0,0-0.1,0-0.1,0
	C10.7,80,0,69.3,0,56c0-13.3,10.7-24,24-24l0,0h2.1C31,18,44.3,8,60,8C79.9,8,96,24.1,96,44z M66.8,58.8c1.6-1.6,1.6-4.1,0-5.7
	l-12-12C54.1,40.4,53.1,40,52,40s-2.1,0.4-2.8,1.2l-12,12c-1.6,1.6-1.6,4.1,0,5.7c1.6,1.6,4.1,1.6,5.7,0l5.2-5.2V80c0,2.2,1.8,4,4,4
	s4-1.8,4-4V53.7l5.2,5.2C62.7,60.4,65.3,60.4,66.8,58.8z"/>
</svg>
