<?xml version="1.0" encoding="utf-8"?>
<!-- Generator: Adobe Illustrator 18.1.1, SVG Export Plug-In . SVG Version: 6.00 Build 0)  -->
<svg version="1.1" id="Layer_1" xmlns="http://www.w3.org/2000/svg" xmlns:xlink="http://www.w3.org/1999/xlink" x="0px" y="0px"
	 viewBox="0 0 96 96" enable-background="new 0 0 96 96" xml:space="preserve">
<path fill="#5BC4B4" d="M16,36C9.4,36,4,41.4,4,48s5.4,12,12,12c6.6,0,12-5.4,12-12S22.6,36,16,36z M16,52c-2.2,0-4-1.8-4-4
	s1.8-4,4-4s4,1.8,4,4S18.2,52,16,52z M48,36c-6.6,0-12,5.4-12,12s5.4,12,12,12s12-5.4,12-12S54.6,36,48,36z M48,52c-2.2,0-4-1.8-4-4
	s1.8-4,4-4s4,1.8,4,4S50.2,52,48,52z M80,36c-6.6,0-12,5.4-12,12s5.4,12,12,12s12-5.4,12-12S86.6,36,80,36z M80,52c-2.2,0-4-1.8-4-4
	s1.8-4,4-4s4,1.8,4,4S82.2,52,80,52z"/>
</svg>
