<?xml version="1.0" encoding="utf-8"?>
<!-- Generator: Adobe Illustrator 18.1.1, SVG Export Plug-In . SVG Version: 6.00 Build 0)  -->
<svg version="1.1" id="Layer_1" xmlns="http://www.w3.org/2000/svg" xmlns:xlink="http://www.w3.org/1999/xlink" x="0px" y="0px"
	 viewBox="0 0 96 96" enable-background="new 0 0 96 96" xml:space="preserve">
<g opacity="0.3">
	<path d="M48,12C16,12,0,48.2,0,48.2S16,84,48,84s48-36,48-36S80,12,48,12z M48,76C26.9,76,13.5,56.1,9,48.1
		c4.5-8,17.9-28.1,39-28.1c21.2,0,34.5,20,39,28C82.5,56,69.1,76,48,76z M48,32c-8.8,0-16,7.2-16,16c0,8.8,7.2,16,16,16
		c8.8,0,16-7.2,16-16C64,39.2,56.8,32,48,32z M48,56c-4.4,0-8-3.6-8-8s3.6-8,8-8s8,3.6,8,8S52.4,56,48,56z"/>
	<path d="M48,12C16,12,0,48.2,0,48.2S16,84,48,84s48-36,48-36S80,12,48,12z M48,76C26.9,76,13.5,56.1,9,48.1
		c4.5-8,17.9-28.1,39-28.1c21.2,0,34.5,20,39,28C82.5,56,69.1,76,48,76z M48,32c-8.8,0-16,7.2-16,16c0,8.8,7.2,16,16,16
		c8.8,0,16-7.2,16-16C64,39.2,56.8,32,48,32z M48,56c-4.4,0-8-3.6-8-8s3.6-8,8-8s8,3.6,8,8S52.4,56,48,56z"/>
</g>
</svg>
