<?xml version="1.0" encoding="utf-8"?>
<!-- Generator: Adobe Illustrator 18.1.1, SVG Export Plug-In . SVG Version: 6.00 Build 0)  -->
<svg version="1.1" xmlns="http://www.w3.org/2000/svg" xmlns:xlink="http://www.w3.org/1999/xlink" x="0px" y="0px"
	 viewBox="0 0 200 200" enable-background="new 0 0 200 200" xml:space="preserve">
<g id="Lager_2" display="none">
	<g display="inline">
		<path fill="#140A0A" d="M150.3,112.4h-0.2c-4.1,0-7.5,3.4-7.5,7.5v19c0,2.1-1.7,3.8-3.8,3.8H55.5c-2.1,0-3.8-1.7-3.8-3.8V55.5
			c0-2.1,1.7-3.8,3.8-3.8h34.2c4.1,0,7.5-3.4,7.5-7.5v-0.2c0-4.1-3.4-7.5-7.5-7.5H44.1c-4.1,0-7.5,3.4-7.5,7.5v106.3
			c0,4.1,3.4,7.5,7.5,7.5h106.3c4.1,0,7.5-3.4,7.5-7.5l-0.1-0.1h0.1v-30.4C157.8,115.7,154.5,112.4,150.3,112.4z"/>
		<path fill="#140A0A" d="M131.1,58.2c-21.5,1.5-38.1,8.6-49.3,21.1c-11.2,12.4-14,26.2-14.7,35.4c-0.3,4.7,3.4,9.4,8,8.9l0.4,0
			c3.6-0.4,6.3-3.3,6.6-6.9c0.5-6.9,2.7-18.3,11.1-27.5c8.4-9.2,21.2-14.5,38.1-15.9v1h-0.2l-0.2,1l-8.7,8.8c-2.9,3-2.9,7.8,0,10.7
			c2.9,3,7.7,3,10.6,0l22.8-23c1.4-1.4,2.2-3.4,2.2-5.4c0-2-0.8-3.9-2.2-5.4l-22.7-22.5c-2.9-3-7.7-3-10.6,0c-2.9,3-2.9,7.8,0,10.7
			L131.1,58.2z"/>
	</g>
</g>
<g id="Layer_91" display="none">
	<g display="inline">
		<g>
			<path fill="#61BEB1" d="M139,81H61c-2.8,0-5-2.2-5-5s2.2-5,5-5h78c2.8,0,5,2.2,5,5S141.8,81,139,81z"/>
		</g>
		<g>
			<path fill="#61BEB1" d="M139,105H61c-2.8,0-5-2.2-5-5c0-2.8,2.2-5,5-5h78c2.8,0,5,2.2,5,5C144,102.8,141.8,105,139,105z"/>
		</g>
		<g>
			<path fill="#61BEB1" d="M139,129H61c-2.8,0-5-2.2-5-5s2.2-5,5-5h78c2.8,0,5,2.2,5,5S141.8,129,139,129z"/>
		</g>
	</g>
</g>
<g id="Lager_3" display="none">
	<g display="inline">
		<path fill-rule="evenodd" clip-rule="evenodd" fill="#140A0A" d="M142.7,89.6h-15.2c-4.1,0-7.5,3.4-7.5,7.5v0.2
			c0,4.1,3.4,7.5,7.5,7.5h3.9c2.1,0,3.8,1.7,3.8,3.8v11.4v18.9c0,2.1-1.7,3.8-3.8,3.8H63.1c-2.1,0-3.8-1.7-3.8-3.8v-30.3
			c0-2.1,1.7-3.8,3.8-3.8H67c4.1,0,7.5-3.4,7.5-7.5v-0.2c0-4.1-3.4-7.5-7.5-7.5H51.7c-4.2,0-7.6,3.4-7.6,7.6v53.1
			c0,4.2,3.4,7.6,7.6,7.6h90.9c4.2,0,7.6-3.4,7.6-7.6v-30.3V97.2C150.3,93,146.9,89.6,142.7,89.6z"/>
		<path fill-rule="evenodd" clip-rule="evenodd" fill="#140A0A" d="M79.8,72.2l9.8-10v8.5v53.1c0,2.1,1.7,3.8,3.8,3.8h7.6
			c2.1,0,3.8-1.7,3.8-3.8V70.7v-7.4l1,0.2l8.8,8.7c3,2.9,7.8,2.9,10.7,0c3-2.9,3-7.7,0-10.6l-23-22.8c-1.4-1.4-3.4-2.2-5.4-2.2
			c-2,0-3.9,0.8-5.4,2.2L69.1,61.5c-3,2.9-3,7.7,0,10.6C72.1,75.1,76.9,75.1,79.8,72.2z"/>
	</g>
</g>
<g id="Lager_3_kopia" display="none">
	<g display="inline">
		<path fill="#140A0A" d="M69.1,91.9c-3,2.9-3,7.7,0,10.6l23,22.8c1.4,1.4,3.4,2.2,5.4,2.2c2,0,3.9-0.8,5.4-2.2l22.5-22.7
			c3-2.9,3-7.7,0-10.6c-3-2.9-7.8-2.9-10.7,0l-9.8,10v-8.5V40.4c0-2.1-1.7-3.8-3.8-3.8h-7.6c-2.1,0-3.8,1.7-3.8,3.8v53.1v7.4l-1-0.2
			l-8.8-8.7C76.9,89,72.1,89,69.1,91.9z"/>
		<path fill="#140A0A" d="M150.3,51.7h-22.8c-4.1,0-7.5,3.4-7.5,7.5v0.2c0,4.1,3.4,7.5,7.5,7.5h11.4c2.1,0,3.8,1.7,3.8,3.8v68.2
			c0,2.1-1.7,3.8-3.8,3.8H97.2H55.5c-2.1,0-3.8-1.7-3.8-3.8V70.7c0-2.1,1.7-3.8,3.8-3.8H67c4.1,0,7.5-3.4,7.5-7.5v-0.2
			c0-4.1-3.4-7.5-7.5-7.5H44.2c-4.2,0-7.6,3.4-7.6,7.6v90.9c0,4.2,3.4,7.6,7.6,7.6h53.1h53.1c4.2,0,7.6-3.4,7.6-7.6V59.3
			C157.8,55.1,154.4,51.7,150.3,51.7z"/>
	</g>
</g>
<g id="Lager_4" display="none">
	<path display="inline" fill="#010202" d="M132.9,87L132.9,87c1.4-3.9,2.2-8.1,2.2-12.5c0-20.9-17-37.9-37.9-37.9
		s-37.9,17-37.9,37.9c0,4.4,0.8,8.6,2.2,12.5l0,0c-14.8,7.5-24.9,22.8-24.9,40.5v22.7c0,4.2,3.4,7.6,7.6,7.6h106.1
		c4.2,0,7.6-3.4,7.6-7.6v-22.7C157.8,109.8,147.7,94.5,132.9,87z M97.2,51.7c12.5,0,22.7,10.2,22.7,22.7s-10.2,22.7-22.7,22.7
		S74.5,87,74.5,74.5S84.7,51.7,97.2,51.7z M142.7,142.7H51.7v-15.2c0-12.2,7.2-22.6,17.6-27.5c6.9,7.6,16.8,12.3,27.9,12.3
		s21-4.8,27.9-12.3c10.4,4.8,17.6,15.3,17.6,27.5V142.7z"/>
</g>
<g id="Lager_95" display="none">
	<g display="inline">
		<path fill="#010202" d="M130.7,40.6c4.4,0,8,3.6,8,8v74.9H55.7V48.6c0-4.4,3.6-8,8-8H130.7 M130.7,36.6H63.7c-6.6,0-12,5.4-12,12
			v78.9h90.9V48.6C142.7,42,137.3,36.6,130.7,36.6L130.7,36.6z"/>
	</g>
	<path display="inline" fill="#010202" d="M155.8,127.5H38.6c-1.1,0-2-0.9-2-2v-11.2c0-1.1,0.9-2,2-2h117.3c1.1,0,2,0.9,2,2v11.2
		C157.8,126.6,156.9,127.5,155.8,127.5z"/>
	<path display="inline" fill="#010202" d="M97.2,157.8L97.2,157.8c-8.4,0-15.2-6.8-15.2-15.2v-7.6h30.3v7.6
		C112.4,151.1,105.6,157.8,97.2,157.8z"/>
</g>
<g id="Lager_109" display="none">
	<path display="inline" fill="#010202" d="M135.1,36.6H59.3c-4.2,0-7.6,3.4-7.6,7.6v106.1c0,4.5,3.7,7.6,7.6,7.6
		c1.4,0,2.9-0.4,4.2-1.3l31.2-26.9c1.4-1.2,3.5-1.2,4.9,0l31.2,26.9c1.3,0.9,2.8,1.3,4.2,1.3c3.9,0,7.6-3.1,7.6-7.6V44.2
		C142.7,40,139.3,36.6,135.1,36.6z M127.5,133.6L107.1,116l-7.4-6.4c-1.4-1.2-3.5-1.2-4.9,0l-7.4,6.4l-20.4,17.6V55.5
		c0-2.1,1.7-3.8,3.8-3.8h49.3h3.8c2.1,0,3.8,1.7,3.8,3.8v3.8V133.6z"/>
</g>
<g id="Lager_7" display="none">
	<g display="inline">
		<path fill="#010202" d="M97.3,40.6c27,0,48.9,22,48.9,49.1s-22,49.1-48.9,49.1c-0.3,0-0.7,0-1.1-0.1c-0.3,0-0.6,0-1-0.1l-0.7,0
			l-0.6,0.2L49.8,152l7.9-31.2l0.4-1.8l-1-1.5c-5.7-8.2-8.7-17.9-8.7-27.9C48.4,62.6,70.3,40.6,97.3,40.6 M97.3,36.6
			c-29.2,0-52.9,23.8-52.9,53.1c0,11.2,3.5,21.6,9.4,30.2l-9.6,38.1l50.9-15.3c0.7,0,1.5,0.1,2.2,0.1c29.2,0,52.9-23.8,52.9-53.1
			S126.6,36.6,97.3,36.6L97.3,36.6z"/>
	</g>
</g>
<g id="Lager_81" display="none">
	<path display="inline" fill="#010202" d="M135.1,44.2c0-4.2-3.4-7.6-7.6-7.6H66.9c-4.2,0-7.6,3.4-7.6,7.6L29,97.2v53.1
		c0,4.2,3.4,7.6,7.6,7.6h121.3c4.2,0,7.6-3.4,7.6-7.6V97.2L135.1,44.2z M72.4,51.7H122l21.7,37.9h-27.5c-2.1,0-3.8,1.7-3.8,3.8v3.1
		c0,7.9-5.8,15-13.6,15.8c-9,0.9-16.7-6.2-16.7-15.1v-3.8c0-2.1-1.7-3.8-3.8-3.8H50.8L72.4,51.7z M146.5,142.7H47.9
		c-2.1,0-3.8-1.7-3.8-3.8v-34.1h23.7c3.4,13.1,15.2,22.7,29.3,22.7s26-9.7,29.3-22.7h23.7v34.1C150.3,141,148.6,142.7,146.5,142.7z"
		/>
</g>
<g id="Lager_82" display="none">
	<path display="inline" fill="#010202" d="M74.2,66.9l9.6,9.6c3.6,3.6,8.3,5.5,13.4,5.5h45.5v60.6H51.7V66.9H74.2 M78.9,51.7H44.2
		c-4.2,0-7.6,3.4-7.6,7.6v90.9c0,4.2,3.4,7.6,7.6,7.6h106.1c4.2,0,7.6-3.4,7.6-7.6V74.5c0-4.2-3.4-7.6-7.6-7.6H97.2
		c-1,0-2-0.4-2.7-1.1L81.6,52.8C80.9,52.1,79.9,51.7,78.9,51.7L78.9,51.7z"/>
</g>
<g id="Lager_10" display="none">
	<path display="inline" fill="#010202" d="M89.6,59.3c16.7,0,30.3,13.6,30.3,30.3c0,6.3-1.9,12.3-5.6,17.5l-3,4.2l-4.2,3
		c-5.2,3.7-11.2,5.6-17.5,5.6c-16.7,0-30.3-13.6-30.3-30.3S72.9,59.3,89.6,59.3 M89.6,44.2c-25.1,0-45.5,20.4-45.5,45.5
		c0,25.1,20.4,45.5,45.5,45.5c9.8,0,18.9-3.1,26.3-8.4l21.4,21.4c1.5,1.5,3.4,2.2,5.3,2.2s3.9-0.7,5.3-2.2l0.1-0.1
		c2.9-2.9,3.4-7.9,0-10.7l-21.4-21.4c5.3-7.4,8.4-16.5,8.4-26.3C135.1,64.5,114.7,44.2,89.6,44.2L89.6,44.2z"/>
</g>
<g id="Lager_96" display="none">
	<path display="inline" fill="#010202" d="M140.7,51.7H53.7c-1.1,0-2-0.9-2-2V36.6h90.9v13.2C142.7,50.8,141.8,51.7,140.7,51.7z"/>
	<path display="inline" fill="#010202" d="M53.7,112.4h86.9c1.1,0,2,0.9,2,2v13.2H51.7v-13.2C51.7,113.3,52.6,112.4,53.7,112.4z"/>
	<path display="inline" fill="#010202" d="M104.8,127.5H89.6v28.3c0,1.1,0.9,2,2,2h11.2c1.1,0,2-0.9,2-2V127.5z"/>
	<g display="inline">
		<path fill="#010202" d="M131.1,40.6v82.9H63.3V40.6H131.1 M135.1,36.6H59.3v90.9h75.8V36.6L135.1,36.6z"/>
	</g>
</g>
<g id="Lager_13" display="none">
	<path display="inline" fill="#010202" d="M96.9,99.8c-0.7-0.7-1-2.8-1.1-2.8c0-0.9,0.4-1.9,1.1-2.6l20.9-21.7c2.9-3,2.9-7.9,0-10.9
		l-0.1-0.1c-3-3.1-7.8-3.1-10.8,0L75.6,94.3C74.8,95,74.5,96,74.5,97c0,0,0.4,2.2,1.1,2.9l31.3,32.8c3,3.1,7.8,3.1,10.8,0l0.1-0.1
		c2.9-3,2.8-8,0-11L96.9,99.8z"/>
</g>
<g id="Lager_14" display="none">
	<path display="inline" fill="#010202" d="M94.6,96.9c0.7-0.7,2.8-1,2.8-1.1c0.9,0,1.9,0.4,2.6,1.1l21.7,20.9c3,2.9,7.9,2.9,10.9,0
		l0.1-0.1c3.1-3,3.1-7.8,0-10.8l-32.6-31.3c-0.8-0.7-1.7-1.1-2.7-1.1c0,0-2.2,0.4-2.9,1.1l-32.8,31.3c-3.1,3-3.1,7.8,0,10.8l0.1,0.1
		c3,2.9,8,2.8,11,0L94.6,96.9z"/>
</g>
<g id="Lager_15" display="none">
	<path display="inline" fill="#010202" d="M93.8,96c0.7-0.7,1-2.8,1.1-2.8c0-0.9-0.4-1.9-1.1-2.6L72.9,68.9c-2.9-3-2.9-7.9,0-10.9
		l0.1-0.1c3-3.1,7.8-3.1,10.8,0l31.3,32.6c0.7,0.8,1.1,1.7,1.1,2.7c0,0-0.4,2.2-1.1,2.9L83.7,129c-3,3.1-7.8,3.1-10.8,0l-0.1-0.1
		c-2.9-3-2.8-8,0-11L93.8,96z"/>
</g>
<g id="Lager_16" display="none">
	<path display="inline" fill="#010202" d="M90.8,93.8c0.7,0.7,2.8,1,2.8,1.1c0.9,0,1.9-0.4,2.6-1.1l21.7-20.9c3-2.9,7.9-2.9,10.9,0
		l0.1,0.1c3.1,3,3.1,7.8,0,10.8l-32.6,31.3c-0.8,0.7-1.7,1.1-2.7,1.1c0,0-2.2-0.4-2.9-1.1L57.8,83.7c-3.1-3-3.1-7.8,0-10.8l0.1-0.1
		c3-2.9,8-2.8,11,0L90.8,93.8z"/>
</g>
<g id="Lager_17" display="none">
	<path display="inline" fill="#010202" d="M120.3,99.8c0.7-0.7,1-2.8,1.1-2.8c0-0.9-0.4-1.9-1.1-2.6L99.4,72.7
		c-2.9-3-2.9-7.9,0-10.9l0.1-0.1c3-3.1,7.8-3.1,10.8,0l31.3,32.6c0.7,0.8,1.1,1.7,1.1,2.7c0,0-0.4,2.2-1.1,2.9l-31.3,32.8
		c-3,3.1-7.8,3.1-10.8,0l-0.1-0.1c-2.9-3-2.8-8,0-11L120.3,99.8z"/>
	<path display="inline" fill="#010202" d="M74.8,99.8c0.7-0.7,1-2.8,1.1-2.8c0-0.9-0.4-1.9-1.1-2.6L53.9,72.7c-2.9-3-2.9-7.9,0-10.9
		l0.1-0.1c3-3.1,7.8-3.1,10.8,0l31.3,32.6c0.7,0.8,1.1,1.7,1.1,2.7c0,0-0.4,2.2-1.1,2.9l-31.3,32.8c-3,3.1-7.8,3.1-10.8,0l-0.1-0.1
		c-2.9-3-2.8-8,0-11L74.8,99.8z"/>
</g>
<g id="Lager_18" display="none">
	<path display="inline" fill="#010202" d="M70.3,96c-0.7-0.7-1-2.8-1.1-2.8c0-0.9,0.4-1.9,1.1-2.6l20.9-21.7c2.9-3,2.9-7.9,0-10.9
		l-0.1-0.1c-3-3.1-7.8-3.1-10.8,0L49,90.5c-0.7,0.8-1.1,1.7-1.1,2.7c0,0,0.4,2.2,1.1,2.9L80.4,129c3,3.1,7.8,3.1,10.8,0l0.1-0.1
		c2.9-3,2.8-8,0-11L70.3,96z"/>
	<path display="inline" fill="#010202" d="M115.8,96c-0.7-0.7-1-2.8-1.1-2.8c0-0.9,0.4-1.9,1.1-2.6l20.9-21.7c2.9-3,2.9-7.9,0-10.9
		l-0.1-0.1c-3-3.1-7.8-3.1-10.8,0L94.5,90.5c-0.7,0.8-1.1,1.7-1.1,2.7c0,0,0.4,2.2,1.1,2.9l31.3,32.8c3,3.1,7.8,3.1,10.8,0l0.1-0.1
		c2.9-3,2.8-8,0-11L115.8,96z"/>
</g>
<g id="Lager_19" display="none">
	<path display="inline" fill="#010202" d="M97.3,135.1h-0.2c-4.1,0-7.5-3.4-7.5-7.5V66.8c0-4.1,3.4-7.5,7.5-7.5h0.2
		c4.1,0,7.5,3.4,7.5,7.5v60.8C104.8,131.7,101.4,135.1,97.3,135.1z"/>
	<path display="inline" fill="#010202" d="M59.3,97.3v-0.2c0-4.1,3.4-7.5,7.5-7.5h60.8c4.1,0,7.5,3.4,7.5,7.5v0.2
		c0,4.1-3.4,7.5-7.5,7.5H66.8C62.7,104.8,59.3,101.4,59.3,97.3z"/>
</g>
<g id="Lager_20" display="none">
	<path display="inline" fill="#61BEB1" d="M110.2,100l25.6-25.6c2.8-2.8,2.8-7.3,0-10.1l-0.1-0.1c-2.8-2.8-7.3-2.8-10.1,0L100,89.8
		L74.4,64.2c-2.8-2.8-7.3-2.8-10.1,0l-0.1,0.1c-2.8,2.8-2.8,7.3,0,10.1L89.8,100l-25.6,25.6c-2.8,2.8-2.8,7.3,0,10.1l0.1,0.1
		c2.8,2.8,7.3,2.8,10.1,0l25.6-25.6l25.6,25.6c2.8,2.8,7.3,2.8,10.1,0l0.1-0.1c2.8-2.8,2.8-7.3,0-10.1L110.2,100z"/>
</g>
<g id="Lager_21" display="none">
	<g display="inline">
		<path fill="#010202" d="M67,89.6h-0.2c-4.1,0-7.5,3.4-7.5,7.5v0.2c0,4.1,3.4,7.5,7.5,7.5H67c4.1,0,7.5-3.4,7.5-7.5v-0.2
			C74.5,93,71.1,89.6,67,89.6z"/>
		<path fill="#010202" d="M97.3,89.6h-0.2c-4.1,0-7.5,3.4-7.5,7.5v0.2c0,4.1,3.4,7.5,7.5,7.5h0.2c4.1,0,7.5-3.4,7.5-7.5v-0.2
			C104.8,93,101.4,89.6,97.3,89.6z"/>
		<path fill="#010202" d="M127.6,89.6h-0.2c-4.1,0-7.5,3.4-7.5,7.5v0.2c0,4.1,3.4,7.5,7.5,7.5h0.2c4.1,0,7.5-3.4,7.5-7.5v-0.2
			C135.1,93,131.7,89.6,127.6,89.6z"/>
	</g>
</g>
<g id="Lager_22" display="none">
	<g display="inline">
		<path fill="#010202" d="M127.4,82.1H67c-4.8,0-8.4,4.2-7.6,8.7l10.3,60.7c0,3.5,2.9,6.3,6.5,6.3h41.9c3.6,0,6.5-2.8,6.5-6.3
			L135,90.8C135.8,86.2,132.2,82.1,127.4,82.1z M110.8,142.7H83.6l-7.7-45.5h42.7L110.8,142.7z"/>
		<path fill="#010202" d="M142.8,51.7h-22.8c0,0-7.6,0-7.6-7.6c0-4.2-3.4-7.6-7.6-7.6H89.6c-4.2,0-7.6,3.4-7.6,7.6
			c0,7.6-7.6,7.6-7.6,7.6H51.7c-4.1,0-7.5,3.4-7.5,7.5v0.2c0,4.1,3.4,7.5,7.5,7.5h91.1c4.1,0,7.5-3.4,7.5-7.5v-0.2
			C150.3,55.1,146.9,51.7,142.8,51.7z"/>
	</g>
</g>
<g id="Lager_26" display="none">
	<path display="inline" fill="#010202" d="M150.3,74.3v-7.4v-7.6c0-4.2-3.4-7.6-7.6-7.6H97.2H51.7c-4.2,0-7.6,3.4-7.6,7.6v8.1v6.9
		v9.6v5.7v45.5c0,4.2,3.4,7.6,7.6,7.6h45.5h45.5c4.2,0,7.6-3.4,7.6-7.6V97.2V83.5V74.3z M135.1,123.7c0,2.1-1.7,3.8-3.8,3.8H97.2
		H63.1c-2.1,0-3.8-1.7-3.8-3.8V92.2l34.8,19.4c1.9,1.1,4.3,1.1,6.2,0l34.8-19.4V123.7z M135.1,75L97.2,96.1L59.3,75v-4.3
		c0-2.1,1.7-3.8,3.8-3.8h34.1h34.1c2.1,0,3.8,1.7,3.8,3.8V75z"/>
</g>
<g id="Lager_25" display="none">
	<path display="inline" d="M150.3,44.2H97.2H44.2c-4.2,0-7.6,3.4-7.6,7.6v30.3c0,4.2,3.4,7.6,7.6,7.6h7.6v53.1
		c0,4.2,3.4,7.6,7.6,7.6h37.9h37.9c4.2,0,7.6-3.4,7.6-7.6V89.6h7.6c4.2,0,7.6-3.4,7.6-7.6V51.7C157.8,47.6,154.4,44.2,150.3,44.2z
		 M127.5,131.3c0,2.1-1.7,3.8-3.8,3.8H97.2H70.7c-2.1,0-3.8-1.7-3.8-3.8V93.4c0-2.1,1.7-3.8,3.8-3.8h11.4V101c0,2.1,1.7,3.8,3.8,3.8
		h11.4h11.4c2.1,0,3.8-1.7,3.8-3.8V89.6h11.4c2.1,0,3.8,1.7,3.8,3.8V131.3z M142.7,70.7c0,2.1-1.7,3.8-3.8,3.8h-11.4v0.4
		c-1.2-0.2-2.5-0.4-3.8-0.4h-7.6h-3.8H97.2H82.1h-3.8h-7.6c-1.3,0-2.6,0.1-3.8,0.4v-0.4H55.5c-2.1,0-3.8-1.7-3.8-3.8v-7.6
		c0-2.1,1.7-3.8,3.8-3.8h22.7h3.8h15.2h15.2h3.8h22.7c2.1,0,3.8,1.7,3.8,3.8V70.7z"/>
</g>
<g id="Lager_27" display="none">
	<path display="inline" fill-rule="evenodd" clip-rule="evenodd" fill="#010202" d="M155.6,91.6l-15.1-14.9c-2.9-3-7.7-3-10.6,0
		c-2.9,3-2.2,10.8-2.2,10.8l0,2.2h-22.8V66.8l2.2,0c0,0,7.8,0.7,10.8-2.2c3-2.9,3-7.7,0-10.6l-15.4-15.2c-1.4-1.4-3.4-2.2-5.4-2.2
		c-2,0-4,0.8-5.4,2.2L76.7,53.9c-3,2.9-3,7.7,0,10.6c3,2.9,10.8,2.2,10.8,2.2l2.2,0v22.8H66.8l0-2.2c0,0,0.7-7.8-2.2-10.8
		c-2.9-3-7.7-3-10.6,0L38.8,92.1c-1.4,1.4-2.2,3.4-2.2,5.4c0,2,0.8,4,2.2,5.4l15.1,14.9c2.9,3,7.7,3,10.6,0c2.9-3,2.2-10.8,2.2-10.8
		l0-2.2h22.8v22.8l-2.2,0c0,0-7.8-0.7-10.8,2.2c-3,2.9-3,7.7,0,10.6l15.4,15.2c1.4,1.4,3.4,2.2,5.4,2.2c2,0,4-0.8,5.4-2.2l14.9-15.1
		c3-2.9,3-7.7,0-10.6c-3-2.9-10.8-2.2-10.8-2.2l-2.2,0v-22.8h22.8l0,2.2c0,0-0.7,7.8,2.2,10.8c2.9,3,7.7,3,10.6,0l15.2-15.4
		c1.4-1.4,2.2-3.4,2.2-5.4C157.8,94.9,157.1,93,155.6,91.6z"/>
</g>
<g id="Lager_28" display="none">
	<g display="inline">
		<path fill="#010202" d="M97.2,36.6c-33.5,0-60.6,27.1-60.6,60.6s27.1,60.6,60.6,60.6s60.6-27.1,60.6-60.6S130.7,36.6,97.2,36.6z
			 M97.2,142.7c-25.1,0-45.5-20.4-45.5-45.5s20.4-45.5,45.5-45.5s45.5,20.4,45.5,45.5S122.3,142.7,97.2,142.7z"/>
		<path fill="#010202" d="M117.8,76.7l-0.1-0.1c-2.8-2.8-7.4-2.8-10.2,0L97.2,86.9L86.9,76.6c-2.8-2.8-7.4-2.8-10.2,0l-0.1,0.1
			c-2.8,2.8-2.8,7.4,0,10.2l10.3,10.3l-10.3,10.3c-2.8,2.8-2.8,7.4,0,10.2l0.1,0.1c2.8,2.8,7.4,2.8,10.2,0l10.3-10.3l10.3,10.3
			c2.8,2.8,7.4,2.8,10.2,0l0.1-0.1c2.8-2.8,2.8-7.4,0-10.2l-10.3-10.3l10.3-10.3C120.7,84.1,120.7,79.5,117.8,76.7z"/>
	</g>
</g>
<g id="Lager_28_kopia" display="none">
	<g display="inline">
		<path fill="#010202" d="M97.2,36.6c-33.5,0-60.6,27.1-60.6,60.6s27.1,60.6,60.6,60.6s60.6-27.1,60.6-60.6S130.7,36.6,97.2,36.6z
			 M97.2,142.7c-25.1,0-45.5-20.4-45.5-45.5s20.4-45.5,45.5-45.5s45.5,20.4,45.5,45.5S122.3,142.7,97.2,142.7z"/>
		<path fill="#010202" d="M120,89.6h-15.2V74.4c0-4.1-3.4-7.5-7.5-7.5h-0.2c-4.1,0-7.5,3.4-7.5,7.5v15.2H74.4
			c-4.1,0-7.5,3.4-7.5,7.5v0.2c0,4.1,3.4,7.5,7.5,7.5h15.2V120c0,4.1,3.4,7.5,7.5,7.5h0.2c4.1,0,7.5-3.4,7.5-7.5v-15.2H120
			c4.1,0,7.5-3.4,7.5-7.5v-0.2C127.5,93,124.2,89.6,120,89.6z"/>
	</g>
</g>
<g id="Lager_29" display="none">
	<g display="inline">
		<path fill="#010202" d="M114.6,92l-9.8,10v-8.5v-19c0-4.1-3.4-7.5-7.5-7.5h-0.2c-4.1,0-7.5,3.4-7.5,7.5v19v7.4l-1-0.2l-8.5-8.4
			c-2.7-2.7-7-3.3-10.1-1.1c-3.9,2.8-4.2,8.2-1,11.5l23,22.8c1.4,1.4,3.4,2.2,5.4,2.2c2,0,3.9-0.8,5.4-2.2l22.5-22.7
			c3-2.9,3-7.7,0-10.6C122.4,89,117.6,89,114.6,92z"/>
		<path fill="#010202" d="M97.2,36.6c-33.5,0-60.6,27.1-60.6,60.6s27.1,60.6,60.6,60.6s60.6-27.1,60.6-60.6S130.7,36.6,97.2,36.6z
			 M97.2,142.7c-25.1,0-45.5-20.4-45.5-45.5s20.4-45.5,45.5-45.5s45.5,20.4,45.5,45.5S122.3,142.7,97.2,142.7z"/>
	</g>
</g>
<g id="Lager_30" display="none">
	<g display="inline">
		<path fill="#010202" d="M92,79.8l10,9.8h-8.5h-19c-4.1,0-7.5,3.4-7.5,7.5v0.2c0,4.1,3.4,7.5,7.5,7.5h19h7.4l-0.2,1l-8.4,8.5
			c-2.7,2.7-3.3,7-1.1,10.1c2.8,3.9,8.2,4.2,11.5,1l22.8-23c1.4-1.4,2.2-3.4,2.2-5.4c0-2-0.8-3.9-2.2-5.4l-22.7-22.5
			c-2.9-3-7.7-3-10.6,0C89,72.1,89,76.9,92,79.8z"/>
		<path fill="#010202" d="M36.6,97.2c0,33.5,27.1,60.6,60.6,60.6s60.6-27.1,60.6-60.6s-27.1-60.6-60.6-60.6S36.6,63.7,36.6,97.2z
			 M142.7,97.2c0,25.1-20.4,45.5-45.5,45.5s-45.5-20.4-45.5-45.5s20.4-45.5,45.5-45.5S142.7,72.1,142.7,97.2z"/>
	</g>
</g>
<g id="Lager_31" display="none">
	<g display="inline">
		<path fill="#010202" d="M79.8,102.5l9.8-10v8.5v19c0,4.1,3.4,7.5,7.5,7.5h0.2c4.1,0,7.5-3.4,7.5-7.5v-19v-7.4l1,0.2l8.5,8.4
			c2.7,2.7,7,3.3,10.1,1.1c3.9-2.8,4.2-8.2,1-11.5l-23-22.8c-1.4-1.4-3.4-2.2-5.4-2.2c-2,0-3.9,0.8-5.4,2.2L69.1,91.8
			c-3,2.9-3,7.7,0,10.6C72.1,105.4,76.9,105.4,79.8,102.5z"/>
		<path fill="#010202" d="M97.2,157.8c33.5,0,60.6-27.1,60.6-60.6s-27.1-60.6-60.6-60.6S36.6,63.7,36.6,97.2S63.7,157.8,97.2,157.8z
			 M97.2,51.7c25.1,0,45.5,20.4,45.5,45.5s-20.4,45.5-45.5,45.5s-45.5-20.4-45.5-45.5S72.1,51.7,97.2,51.7z"/>
	</g>
</g>
<g id="Lager_32" display="none">
	<g display="inline">
		<path fill="#010202" d="M102.5,114.6l-10-9.8h8.5h19c4.1,0,7.5-3.4,7.5-7.5v-0.2c0-4.1-3.4-7.5-7.5-7.5h-19h-7.4l0.2-1l8.4-8.5
			c2.7-2.7,3.3-7,1.1-10.1c-2.8-3.9-8.2-4.2-11.5-1l-22.8,23c-1.4,1.4-2.2,3.4-2.2,5.4c0,2,0.8,3.9,2.2,5.4l22.7,22.5
			c2.9,3,7.7,3,10.6,0C105.4,122.4,105.4,117.6,102.5,114.6z"/>
		<path fill="#010202" d="M157.8,97.2c0-33.5-27.1-60.6-60.6-60.6S36.6,63.7,36.6,97.2s27.1,60.6,60.6,60.6S157.8,130.7,157.8,97.2z
			 M51.7,97.2c0-25.1,20.4-45.5,45.5-45.5s45.5,20.4,45.5,45.5s-20.4,45.5-45.5,45.5S51.7,122.3,51.7,97.2z"/>
	</g>
</g>
<g id="Lager_35" display="none">
	<g display="inline">
		<path fill="#140A0A" d="M133,87.4l-0.1,0.1c-2.8,2.8-7.3,2.8-10.1,0L99.9,64.5c-1.5-1.5-3.9-1.5-5.4,0L71.6,87.5
			c-2.8,2.8-7.3,2.8-10.1,0l-0.1-0.1c-2.8-2.8-2.8-7.4,0-10.2l30.7-31c2.8-2.8,7.3-2.8,10.1,0l30.7,31C135.8,80,135.8,84.6,133,87.4
			z"/>
	</g>
	<g display="inline">
		<path fill="#140A0A" d="M61.4,107l0.1-0.1c2.8-2.8,7.3-2.8,10.1,0L94.5,130c1.5,1.5,3.9,1.5,5.4,0l22.9-23.1
			c2.8-2.8,7.3-2.8,10.1,0l0.1,0.1c2.8,2.8,2.8,7.4,0,10.2l-30.7,31c-2.8,2.8-7.3,2.8-10.1,0l-30.7-31
			C58.6,114.4,58.6,109.8,61.4,107z"/>
	</g>
</g>
<g id="Lager_36" display="none">
	<g display="inline">
		<path fill="#140A0A" d="M70.7,97.2h7.6c2.1,0,3.8-1.7,3.8-3.8v-7.6c0-2.1-1.7-3.8-3.8-3.8h-7.6c-2.1,0-3.8,1.7-3.8,3.8v7.6
			C66.9,95.5,68.6,97.2,70.7,97.2z"/>
		<path fill="#140A0A" d="M101,97.2h22.7c2.1,0,3.8-1.7,3.8-3.8v-7.6c0-2.1-1.7-3.8-3.8-3.8H101c-2.1,0-3.8,1.7-3.8,3.8v7.6
			C97.2,95.5,98.9,97.2,101,97.2z"/>
		<path fill="#140A0A" d="M70.7,127.5h7.6c2.1,0,3.8-1.7,3.8-3.8v-7.6c0-2.1-1.7-3.8-3.8-3.8h-7.6c-2.1,0-3.8,1.7-3.8,3.8v7.6
			C66.9,125.8,68.6,127.5,70.7,127.5z"/>
		<path fill="#140A0A" d="M101,127.5h22.7c2.1,0,3.8-1.7,3.8-3.8v-7.6c0-2.1-1.7-3.8-3.8-3.8H101c-2.1,0-3.8,1.7-3.8,3.8v7.6
			C97.2,125.8,98.9,127.5,101,127.5z"/>
		<path fill="#140A0A" d="M150.3,36.6H44.2c-4.2,0-7.6,3.4-7.6,7.6v106.1c0,4.2,3.4,7.6,7.6,7.6h106.1c4.2,0,7.6-3.4,7.6-7.6V44.2
			C157.8,40,154.4,36.6,150.3,36.6z M142.7,138.9c0,2.1-1.7,3.8-3.8,3.8H55.5c-2.1,0-3.8-1.7-3.8-3.8V70.7c0-2.1,1.7-3.8,3.8-3.8
			h83.4c2.1,0,3.8,1.7,3.8,3.8V138.9z"/>
	</g>
</g>
<g id="Lager_37" display="none">
	<path display="inline" fill="#140A0A" d="M135.3,44.2h-0.5c-12.4,0-22.5,10.1-22.5,22.5v0.5c0,9.9,6.3,18.2,15.2,21.3v24
		c0,4.2-3.4,7.6-7.6,7.6h-1.3c-3-8.8-11.4-15.2-21.3-15.2H97c-9.9,0-18.2,6.3-21.3,15.2h-1.3c-4.2,0-7.6-3.4-7.6-7.6v-24
		c8.8-3,15.2-11.4,15.2-21.3v-0.5c0-12.4-10.1-22.5-22.5-22.5h-0.5c-12.4,0-22.5,10.1-22.5,22.5v0.5c0,9.9,6.3,18.2,15.2,21.3v31.6
		v0.2c0,8.3,6.7,15,15,15h9c3,8.8,11.4,15.2,21.3,15.2h0.5c9.9,0,18.2-6.3,21.3-15.2h9c8.3,0,15-6.7,15-15v-0.2V88.4
		c8.8-3,15.2-11.4,15.2-21.3v-0.5C157.8,54.2,147.8,44.2,135.3,44.2z M59.3,74.5c-4.2,0-7.6-3.4-7.6-7.6c0-4.2,3.4-7.6,7.6-7.6
		s7.6,3.4,7.6,7.6C66.9,71.1,63.5,74.5,59.3,74.5z M97.2,135.1c-4.2,0-7.6-3.4-7.6-7.6c0-4.2,3.4-7.6,7.6-7.6s7.6,3.4,7.6,7.6
		C104.8,131.7,101.4,135.1,97.2,135.1z M135.1,74.5c-4.2,0-7.6-3.4-7.6-7.6c0-4.2,3.4-7.6,7.6-7.6c4.2,0,7.6,3.4,7.6,7.6
		C142.7,71.1,139.3,74.5,135.1,74.5z"/>
</g>
<g id="Lager_38" display="none">
	<path display="inline" fill="#140A0A" d="M112.4,89.6h-0.2c-4.1,0-7.5-3.4-7.5-7.5V82c0-4.1,3.4-7.5,7.5-7.5h0.2
		c4.1,0,7.5,3.4,7.5,7.5v0.2C119.9,86.3,116.6,89.6,112.4,89.6z"/>
	<path display="inline" fill="#140A0A" d="M157.8,36.6"/>
	<path display="inline" fill="#140A0A" d="M134.7,59.7L133,98.5c0,0.9-0.4,1.8-1.1,2.5l-28.4,28.4c-1.5,1.5-3.9,1.5-5.4,0L65,96.3
		c-1.5-1.5-1.5-3.9,0-5.4l28.4-28.4c0.7-0.7,1.6-1.1,2.5-1.1L134.7,59.7 M142.4,44.2c-0.1,0-0.2,0-0.4,0l-51.2,2.3
		c-1.9,0.1-3.7,0.9-5,2.2L46.5,88.1c-3.1,3.1-3.1,8,0,11.1L95.2,148c1.5,1.5,3.5,2.3,5.5,2.3c2,0,4-0.8,5.5-2.3l39.4-39.4
		c1.3-1.3,2.1-3.1,2.2-5l2.3-51.2C150.5,47.9,146.9,44.2,142.4,44.2L142.4,44.2z"/>
</g>
<g id="Lager_39" display="none">
	<path display="inline" fill="#010202" d="M151,99c4.2-6.4,6.7-14.2,6.7-22.6c0-22-16.9-39.8-37.8-39.8c-18.1,0-33.2,13.4-36.9,31.3
		c-2.7-0.6-5.5-1-8.4-1c-20.9,0-37.8,17.8-37.8,39.8c0,8.4,2.5,16.2,6.7,22.6l-6.9,28.5L73,146.4c0.5,0,1.1,0.1,1.6,0.1
		c18.1,0,33.2-13.4,36.9-31.3c2.7,0.6,5.5,1,8.4,1c0.5,0,1.1-0.1,1.6-0.1l36.4,11.5L151,99z M97.1,108.1
		C97.1,108.1,97.1,108.1,97.1,108.1c-0.1,2.4-0.6,4.7-1.3,6.9c0,0,0,0,0,0c-0.2,0.7-0.5,1.4-0.8,2.1c0,0,0,0.1,0,0.1
		c-0.3,0.6-0.6,1.3-0.9,1.9c0,0.1-0.1,0.1-0.1,0.2c-0.3,0.6-0.6,1.1-1,1.7c-0.1,0.1-0.2,0.2-0.2,0.4c-0.3,0.5-0.7,0.9-1,1.4
		c-0.1,0.2-0.3,0.3-0.4,0.5c-0.3,0.4-0.6,0.8-1,1.1c-0.2,0.2-0.5,0.5-0.7,0.7c-0.3,0.3-0.5,0.5-0.8,0.8c-0.4,0.3-0.7,0.6-1.1,0.9
		c-0.2,0.1-0.4,0.3-0.6,0.4c-0.6,0.4-1.1,0.8-1.7,1.1c0,0-0.1,0-0.1,0.1c-2.6,1.5-5.4,2.5-8.5,2.8c0,0-0.1,0-0.1,0
		c-0.6,0.1-1.3,0.1-1.9,0.1l-0.1,0c0,0,0,0,0,0c-0.1,0-0.1,0-0.2,0c-0.8,0-1.6,0-2.4-0.1l-1.1,0l-2.5,0.8l-10.8,3.4l0.6-2.5l1.5-6.4
		l-2.3-3.5c-3.5-4.3-5.7-10-5.7-16.3c0-13.6,10.2-24.6,22.7-24.6c0,0,0,0,0,0c0,0,0,0,0,0c0.8,0,1.5,0,2.2,0.1c0.1,0,0.1,0,0.2,0
		c0.6,0.1,1.3,0.2,1.9,0.3c0.3,0.1,0.7,0.2,1,0.3c0.3,0.1,0.7,0.2,1,0.3c0.4,0.1,0.8,0.3,1.2,0.5c0.2,0.1,0.4,0.1,0.6,0.2
		c0,0,0,0,0,0c8.5,3.6,14.5,12.5,14.5,22.9C97.2,107.2,97.2,107.6,97.1,108.1L97.1,108.1z M138.3,90.6l-3.6,5.5l1.5,6.4l0.6,2.5
		l-10.8-3.4l-2.5-0.8l-2.7,0.1c-0.3,0-0.7,0-1,0.1l-0.1,0c-2.8,0-5.5-0.6-8-1.7c-1.8-9.9-7-18.5-14.4-24.4
		C98,62,107.8,51.7,119.9,51.7c12.5,0,22.7,11,22.7,24.6C142.5,81.5,141.1,86.5,138.3,90.6z"/>
</g>
<g id="Lager_40" display="none">
	<path display="inline" fill="#010202" d="M142.6,78.3c0.2-1.2-0.1-2.5-1.2-3.5l-36.9-36.9c-1-1-2.3-1.3-3.5-1.2v-0.1h-3.8h-7.6
		H59.3c-4.2,0-7.6,3.4-7.6,7.6v106.1c0,4.2,3.4,7.6,7.6,7.6h75.8c4.2,0,7.6-3.4,7.6-7.6V85.8v-3.8v-3.8H142.6z M123.7,142.7H70.7
		c-2.1,0-3.8-1.7-3.8-3.8V55.5c0-2.1,1.7-3.8,3.8-3.8h18.9h3.8c2.1,0,3.8,1.7,3.8,3.8v22.2c0,2.4,1.9,4.3,4.3,4.3h22.2
		c2.1,0,3.8,1.7,3.8,3.8v53.1C127.5,141,125.8,142.7,123.7,142.7z"/>
</g>
<g id="Lager_41" display="none">
	<path display="inline" fill="#010202" d="M157.7,67.8c0.1-0.9-0.1-1.9-1-2.7l-30.7-27.7c-0.7-0.6-1.6-0.9-2.4-0.9
		c-0.2,0-0.4,0-0.5,0v-0.1h-3.2h-6.3H88.4c-3.5,0-6.3,2.5-6.3,5.7v26.9l-1.5-1.3c-0.7-0.6-1.6-0.9-2.4-0.9c-0.2,0-0.4,0-0.5,0v-0.1
		h-3.2h-6.3H42.9c-3.5,0-6.3,2.5-6.3,5.7v79.6c0,3.1,2.8,5.7,6.3,5.7h63.2c3.5,0,6.3-2.5,6.3-5.7v-24.6h39.2c3.5,0,6.3-2.5,6.3-5.7
		V73.5v-2.8L157.7,67.8L157.7,67.8z M97.2,138.9c0,2.1-1.7,3.8-3.8,3.8H55.5c-2.1,0-3.8-1.7-3.8-3.8V85.8c0-2.1,1.7-3.8,3.8-3.8h3.8
		h3.8h18.9v39.8c0,3.1,2.8,5.7,6.3,5.7h8.8V138.9z M142.7,108.6c0,2.1-1.7,3.8-3.8,3.8H101c-2.1,0-3.8-1.7-3.8-3.8V55.5
		c0-2.1,1.7-3.8,3.8-3.8h7.6c2.1,0,3.8,1.7,3.8,3.8v18.9c0,4.2,3.4,7.6,7.6,7.6h18.9c2.1,0,3.8,1.7,3.8,3.8V108.6z"/>
</g>
<g id="Lager_42" display="none">
	<path display="inline" fill-rule="evenodd" clip-rule="evenodd" fill="#010202" d="M150.3,142.7c-4.2,0-7.6-3.4-7.6-7.6v-2.3
		c-8,8.3-18.4,15-30.3,17.5l-4.9,4.9c-1.5,1.5-4.4,2.7-6.5,2.7h-3.8l0,0l0,0h-3.8c-2.1,0-5-1.2-6.5-2.7l-4.9-4.9
		c-11.9-2.5-22.3-9.2-30.3-17.5v2.3c0,4.2-3.4,7.6-7.6,7.6s-7.6-3.4-7.6-7.6v-22.7c0-4.2,3.4-7.6,7.6-7.6h22.7
		c4.2,0,7.6,3.4,7.6,7.6s-3.4,7.6-7.6,7.6h7.7h0H63.7c6.6,7.4,15.6,12.7,25.9,14.5v-25.8v-3.8v-7.6v-7.6h-6.7
		c-4.7,0-8.4-3.4-8.4-7.5V82c0-4.1,3.8-7.5,8.4-7.5h6.7v-9.7c-4.5-2.6-7.6-7.5-7.6-13.1c0-8.4,6.8-15.2,15.2-15.2l0,0l0,0
		c8.4,0,15.2,6.8,15.2,15.2c0,5.6-3.1,10.4-7.6,13.1v9.7h6.7c4.7,0,8.4,3.4,8.4,7.5v0.2c0,4.1-3.8,7.5-8.4,7.5h-6.7v7.6v7.6v3.8
		v25.8c10.3-1.8,19.2-7,25.9-14.5h-10.8h0h7.7c-4.2,0-7.6-3.4-7.6-7.6s3.4-7.6,7.6-7.6h22.7c4.2,0,7.6,3.4,7.6,7.6v22.7
		C157.8,139.3,154.4,142.7,150.3,142.7z M44.2,150.3h-0.2c0,0,0,0,0,0L44.2,150.3C44.2,150.3,44.2,150.3,44.2,150.3z M150.3,150.3
		h-0.2c0,0,0,0,0,0L150.3,150.3C150.3,150.3,150.3,150.3,150.3,150.3z"/>
</g>
<g id="Lager_44" display="none">
	<g display="inline">
		<path fill="#010202" d="M97.2,36.6c-33.5,0-60.6,27.1-60.6,60.6s27.1,60.6,60.6,60.6s60.6-27.1,60.6-60.6S130.7,36.6,97.2,36.6z
			 M97.2,142.7c-25.1,0-45.5-20.4-45.5-45.5s20.4-45.5,45.5-45.5s45.5,20.4,45.5,45.5S122.3,142.7,97.2,142.7z"/>
		<path fill="#010202" d="M112.4,97.2H101c-2.1,0-3.8-1.7-3.8-3.8V82c0-4.1-3.4-7.5-7.5-7.5h-0.2c-4.1,0-7.5,3.4-7.5,7.5v22.9
			c0,4.1,3.4,7.5,7.5,7.5h0.1h7.6h15.2c4.1,0,7.5-3.4,7.5-7.5v-0.2C119.9,100.6,116.6,97.2,112.4,97.2z"/>
	</g>
</g>
<g id="Lager_45" display="none">
	<g display="inline">
		<path fill="#010202" d="M135.1,82.1h-7.6V63.1h-0.3c-1.9-15-14.6-26.5-30.1-26.5S69,48.2,67.2,63.1h-0.3v18.9h-7.6
			c-4.2,0-7.6,3.4-7.6,7.6v60.6c0,4.2,3.4,7.6,7.6,7.6h75.8c4.2,0,7.6-3.4,7.6-7.6V89.6C142.7,85.4,139.3,82.1,135.1,82.1z
			 M82.1,66.9c0-8.4,6.8-15.2,15.2-15.2s15.2,6.8,15.2,15.2v15.2H82.1V66.9z M123.7,142.7H70.7c-2.1,0-3.8-1.7-3.8-3.8V101
			c0-2.1,1.7-3.8,3.8-3.8h53.1c2.1,0,3.8,1.7,3.8,3.8v37.9C127.5,141,125.8,142.7,123.7,142.7z"/>
		<circle fill="#010202" cx="97.2" cy="119.9" r="7.6"/>
	</g>
</g>
<g id="Lager_46" display="none">
	<g display="inline">
		<path fill="#010202" d="M135.1,82.1h-7.6V63.1h-0.3l0,0c-1.9-15-14.9-26.5-30.6-26.5c-13.7,0-25.4,8.8-29.4,21
			c-1.5,4.6,2,9.3,6.9,9.3h0.9c3.2,0,5.9-2.1,7-5.1c2.1-5.9,7.9-10.1,14.5-10.1c8.5,0,15.7,6.8,15.7,15.2v15.2H89.6h-7.6H66.9h-7.6
			c-4.2,0-7.6,3.4-7.6,7.6v60.6c0,4.2,3.4,7.6,7.6,7.6h75.8c4.2,0,7.6-3.4,7.6-7.6V89.6C142.7,85.4,139.3,82.1,135.1,82.1z
			 M127.5,138.9c0,2.1-1.7,3.8-3.8,3.8H70.7c-2.1,0-3.8-1.7-3.8-3.8V101c0-2.1,1.7-3.8,3.8-3.8h53.1c2.1,0,3.8,1.7,3.8,3.8V138.9z"
			/>
		<circle fill="#010202" cx="97.2" cy="119.9" r="7.6"/>
	</g>
</g>
<g id="Lager_47" display="none">
	<path display="inline" fill="#010202" d="M139.7,82.1h-1.1c2.6-4.5,4.1-9.6,4.1-15.2c0-16.7-13.6-30.3-30.3-30.3
		S82.1,50.2,82.1,66.9c-16.7,0-30.3,13.6-30.3,30.3c0,5.5,1.5,10.7,4.1,15.2h-1.1c-10.8,4.8-18.2,15.2-18.2,26.2v11.6
		c0,2.7,4.2,7.6,7.3,7.6h77c3.1,0,6.6-4.9,6.6-7.6v-11.6c0-3.9-0.9-7.6-2.6-11.1h26.3c3.1,0,6.6-4.9,6.6-7.6v-11.6
		C157.8,97.2,150.5,86.9,139.7,82.1z M112.4,51.7c8.4,0,15.2,6.8,15.2,15.2s-6.8,15.2-15.2,15.2c-1.6,0-3.1-0.3-4.6-0.8
		c-2.5-4-5.8-7.3-9.8-9.8c-0.5-1.4-0.8-3-0.8-4.6C97.2,58.5,104,51.7,112.4,51.7z M82.1,82.1c8.4,0,15.2,6.8,15.2,15.2
		c0,8.4-6.8,15.2-15.2,15.2c-7.5,0-13.7-5.4-14.9-12.6c-0.2-0.8-0.3-1.7-0.3-2.6C66.9,88.8,73.7,82.1,82.1,82.1z M112.4,142.7H51.7
		v-4.1c0-4.1,2.7-8.4,6.8-11.1h15.7h31.3c4.1,2.7,6.8,7,6.8,11.1V142.7z M142.7,112.4h-33.3h-1.1c2.6-4.5,4.1-9.6,4.1-15.2h23.5
		c4.1,2.7,6.8,7,6.8,11.1V112.4z"/>
</g>
<g id="Lager_48" display="none">
	<path display="inline" fill="#010202" d="M97.2,59.3l5.8,15.1c3.2,6.8,9.6,11.6,17,12.8l15.1,2.5l-11.9,11.3
		c-4.9,5.1-7.2,12.3-6.1,19.3l2.8,14.8l-11.8-5.8c-3.3-1.9-7.1-1.7-11-1.7c-3.8,0-7.6-0.1-11,1.7l-11.8,5.8l2.8-14.8
		c1.1-7-1.1-14.2-6.1-19.3L59.3,89.6l15.1-2.5c7.5-1.1,13.8-5.9,17-12.8L97.2,59.3 M97.2,36.3c-2.7,0-5.4,1.4-6.7,4.3L77.7,68
		c-1,2.2-3.1,3.8-5.6,4.2l-29.2,4.5c-6,0.9-8.4,8.2-4.2,12.5l21.7,22.3c1.6,1.7,2.4,4,2,6.4l-5,31.1c-0.8,4.8,3,8.6,7.3,8.6
		c1.2,0,2.4-0.3,3.6-1l25.4-14.1c1.1-0.6,2.4-0.9,3.6-0.9s2.5,0.3,3.6,0.9l25.4,14.1c1.2,0.7,2.4,1,3.6,1c4.3,0,8.1-3.8,7.3-8.6
		l-5-31.1c-0.4-2.3,0.4-4.7,2-6.4l21.7-22.3c4.2-4.3,1.8-11.6-4.2-12.5l-29.2-4.5c-2.4-0.4-4.5-2-5.6-4.2l-12.8-27.4
		C102.6,37.7,99.9,36.3,97.2,36.3L97.2,36.3z"/>
</g>
<g id="Lager_97" display="none">
	<path display="inline" d="M163.2,99.5l-60-60c-0.2-0.2-0.4-0.5-0.6-0.7c-1.5-1.5-3.4-2.2-5.4-2.2c-1.9,0-3.9,0.7-5.4,2.2
		c-0.2,0.2-0.4,0.5-0.6,0.7l-60,60c-2.9,2.9-2.9,7.7,0,10.6c2.9,2.9,7.7,2.9,10.6,0l55.4-55.4l55.4,55.4c2.9,2.9,7.7,2.9,10.6,0
		C166.2,107.2,166.2,102.5,163.2,99.5z"/>
	<path display="inline" d="M110.4,112.4H84.1c-1.1,0-2,0.9-2,2v28.3h30.3v-28.3C112.4,113.3,111.5,112.4,110.4,112.4z"/>
	<circle display="inline" cx="97.2" cy="89.6" r="7.6"/>
	<g display="inline">
		<path d="M66.9,112.4V78.3H51.7v72c0,4.2,3.4,7.6,7.6,7.6h0c4.2,0,7.6-3.4,7.6-7.6v-11.4V112.4z"/>
		<path d="M82.1,142.7v11.4c0,2.1,1.7,3.8,3.8,3.8h22.7c2.1,0,3.8-1.7,3.8-3.8v-11.4H82.1z"/>
		<path d="M127.5,78.3v34.1v26.5v11.4c0,4.2,3.4,7.6,7.6,7.6h0c4.2,0,7.6-3.4,7.6-7.6v-72H127.5z"/>
	</g>
	<rect x="59.3" y="142.7" display="inline" width="75.8" height="15.2"/>
</g>
<g id="Lager_99" display="none">
	<path display="inline" fill="#010202" d="M165.4,70.7h-30.3l-12.9-12.9c-1.4-1.4-3.3-2.2-5.4-2.2h-24c-2,0-3.9,0.8-5.4,2.2
		L74.5,70.7H44.2c-4.2,0-7.6,3.4-7.6,7.6v75.8c0,4.2,3.4,7.6,7.6,7.6h11.4h3.8c4.2,0,7.6-3.4,7.6-7.6c0-4.2-3.4-7.6-7.6-7.6h-3.8
		c-2.1,0-3.8-1.7-3.8-3.8V89.6c0-2.1,1.7-3.8,3.8-3.8h18.9h6.3l4.4-4.4l10.7-10.7h17.8l10.7,10.7l4.4,4.4h6.3h18.9
		c2.1,0,3.8,1.7,3.8,3.8v53.1c0,2.1-1.7,3.8-3.8,3.8h-3.8c-4.2,0-7.6,3.4-7.6,7.6c0,4.1,3.3,7.5,7.5,7.6l0,0h0.1h3.8h11.4
		c4.2,0,7.6-3.4,7.6-7.6V78.3C173,74.1,169.6,70.7,165.4,70.7z"/>
	<g display="inline">
		<path fill="#010202" d="M104.8,107.4c9,0,16.3,7.3,16.3,16.3s-7.3,16.3-16.3,16.3s-16.3-7.3-16.3-16.3S95.8,107.4,104.8,107.4
			 M104.8,93.4c-16.7,0-30.3,13.6-30.3,30.3s13.6,30.3,30.3,30.3s30.3-13.6,30.3-30.3S121.5,93.4,104.8,93.4L104.8,93.4z"/>
	</g>
</g>
<g id="Lager_54" display="none">
	<g display="inline">
		<path fill="#010202" d="M142.7,36.6h-7.6H74.5H59.3c-8.4,0-15.2,6.8-15.2,15.2v90.9c0,8.4,6.8,15.2,15.2,15.2h15.2h68.2
			c4.2,0,7.6-3.4,7.6-7.6v-3.8v-3.8v-15.2v-14.9V51.7v-7.6C150.3,40,146.9,36.6,142.7,36.6z M135.1,138.9c0,2.1-1.7,3.8-3.8,3.8
			H74.5h-7.7c-4.1,0-7.5-3.4-7.5-7.5V135c0-4.1,3.4-7.5,7.5-7.5h7.7h56.8c2.1,0,3.8,1.7,3.8,3.8V138.9z M135.1,108.8
			c0,2.1-1.7,3.8-3.8,3.8H78.3c-2.1,0-3.8-1.7-3.8-3.8V55.5c0-2.1,1.7-3.8,3.8-3.8h53.1c2.1,0,3.8,1.7,3.8,3.8V108.8z"/>
		<path fill="#010202" d="M116.2,66.9H93.4c-2.1,0-3.8,1.7-3.8,3.8v7.6c0,2.1,1.7,3.8,3.8,3.8h22.7c2.1,0,3.8-1.7,3.8-3.8v-7.6
			C119.9,68.6,118.3,66.9,116.2,66.9z"/>
	</g>
</g>
<g id="Lager_56" display="none">
	<g display="inline">
		<path fill="#010202" d="M113.9,40.6c1.1,0,2,0.9,2,2v63.8c0,1.1-0.9,2-2,2H80.5c-1.1,0-2-0.9-2-2V42.6c0-1.1,0.9-2,2-2H113.9
			 M113.9,36.6H80.5c-3.3,0-6,2.7-6,6v63.8c0,3.3,2.7,6,6,6h33.5c3.3,0,6-2.7,6-6V42.6C119.9,39.3,117.3,36.6,113.9,36.6L113.9,36.6
			z"/>
	</g>
	<path display="inline" fill="#010202" d="M104.8,135.1H89.6v20.7c0,1.1,0.9,2,2,2h11.2c1.1,0,2-0.9,2-2V135.1z"/>
	<path display="inline" fill="#010202" d="M142.7,66.9c-4.2,0-7.6,3.4-7.6,7.6v7.6v6.2c0,20.2-15.2,37.8-35.3,39.1
		c-22.1,1.5-40.5-16.1-40.5-37.8v-7.6v-7.6c0-4.2-3.4-7.6-7.6-7.6h0c-4.2,0-7.6,3.4-7.6,7.6v13.7c0,28.6,22,53.1,50.5,54.5
		c30.5,1.4,55.6-22.8,55.6-53V74.5C150.3,70.3,146.9,66.9,142.7,66.9L142.7,66.9z"/>
</g>
<g id="Lager_57" display="none">
	<path display="inline" d="M112.4,82.1c17.4,0,31.4,14.7,30.2,32.4c-1.1,16.1-15.2,28.2-31.3,28.2H67.6c-7.9,0-15-5.8-15.8-13.6
		c-0.9-9,6.2-16.7,15.1-16.7c0.4,0,0.9,0,1.3,0.1l5.9,0.5c3.4,0.3,6.7-1.8,7.8-5l1.9-5.5C88.1,90.2,99.5,82.1,112.4,82.1
		 M112.4,66.9c-19.8,0-36.7,12.7-42.9,30.4c-0.9-0.1-1.7-0.1-2.6-0.1c-16.7,0-30.3,13.6-30.3,30.3s13.6,30.3,30.3,30.3h45.5
		c25.1,0,45.5-20.4,45.5-45.5C157.8,87.3,137.5,66.9,112.4,66.9L112.4,66.9z"/>
</g>
<g id="Lager_58" display="none">
	<g display="inline">
		<path d="M102.3,99.4c-1.4-1.4-3.3-2.2-5.3-2.2c-2,0-3.9,0.8-5.3,2.2l-22.4,22.7c-3,2.9-3,7.7,0,10.6c3,2.9,7.7,2.9,10.7,0l9.8-10
			v8.5v19c0,4.1,3.3,7.5,7.5,7.5h0.2c4.1,0,7.5-3.4,7.5-7.5v-19V124l1,0.2l8.5,8.4c2.7,2.7,7,3.3,10,1.1c3.9-2.8,4.2-8.2,1-11.5
			L102.3,99.4z"/>
		<path d="M157.8,85.8c-0.1-2.8-0.4-5.8-0.7-8.7c-2.1-20.6-18.6-37.6-39.1-40.2c-22.2-2.8-41.6,10.6-48.4,30
			c-0.9-0.1-1.7-0.1-2.6-0.1c-16.6,0-30.4,13.6-30.4,30.2v7.5c0,4.1,3.6,7.5,7.7,7.5h0.2c4.1,0,7.3-3.5,7.3-7.7v-6
			c-0.9-9,6.5-16.6,15.3-16.6c0.4,0,0.9,0,1.3,0.1l5.8-0.1c3.4,0.3,6.6-1.2,7.7-4.5l1.6-4.7c4-11.4,14-19.9,26-20.9
			c18.5-1.6,34.5,14,33.3,32.5l0,1.6v19.4h0.1c0.2,3.9,3.7,7.1,7.7,7.1h0.2c3.9,0,6.9-3.2,7.2-7.1h0.1L157.8,85.8L157.8,85.8z"/>
	</g>
</g>
<g id="Lager_92" display="none">
	<g display="inline">
		<path d="M157.8,85.8c-0.1-2.8-0.4-5.8-0.7-8.7c-2.1-20.6-18.6-37.6-39.1-40.2c-22.2-2.8-41.6,10.6-48.4,30
			c-0.9-0.1-1.7-0.1-2.6-0.1c-16.6,0-30.4,13.6-30.4,30.2v7.5c0,4.1,3.6,7.5,7.7,7.5h0.2c4.1,0,7.3-3.5,7.3-7.7v-6
			c-0.9-9,6.5-16.6,15.3-16.6c0.4,0,0.9,0,1.3,0.1l5.8-0.1c3.4,0.3,6.6-1.2,7.7-4.5l1.6-4.7c4-11.4,14-19.9,26-20.9
			c18.5-1.6,34.5,14,33.3,32.5l0,1.6v19.4h0.1c0.2,3.9,3.7,7.1,7.7,7.1h0.2c3.9,0,6.9-3.2,7.2-7.1h0.1L157.8,85.8L157.8,85.8z"/>
	</g>
	<path display="inline" d="M87.6,127.5H76.5c-1.1,0-2-0.9-2-2V99.2c0-1.1,0.9-2,2-2h11.2c1.1,0,2,0.9,2,2v26.3
		C89.6,126.6,88.7,127.5,87.6,127.5z"/>
	<path display="inline" d="M87.6,173H76.5c-1.1,0-2-0.9-2-2v-26.3c0-1.1,0.9-2,2-2h11.2c1.1,0,2,0.9,2,2V171
		C89.6,172.1,88.7,173,87.6,173z"/>
	<path display="inline" d="M117.9,112.4h-11.2c-1.1,0-2-0.9-2-2V84.1c0-1.1,0.9-2,2-2h11.2c1.1,0,2,0.9,2,2v26.3
		C119.9,111.5,119.1,112.4,117.9,112.4z"/>
	<path display="inline" d="M117.9,157.8h-11.2c-1.1,0-2-0.9-2-2v-26.3c0-1.1,0.9-2,2-2h11.2c1.1,0,2,0.9,2,2v26.3
		C119.9,156.9,119.1,157.8,117.9,157.8z"/>
</g>
<g id="Lager_93" display="none">
	<g id="Sun_3_x2C__Brightness_3" display="inline">
		<path fill="#010202" d="M157.8,89.6H139c-7.6,6.7-3,15.2,3.7,15.2h18.8C169.1,98.1,164.5,89.6,157.8,89.6z"/>
		<g>
			<path fill="#010202" d="M97.2,78.5c1.2,0,2.5,0.1,3.7,0.4c7.3,1.4,13.3,7.4,14.7,14.7c1.1,5.7-0.3,11.3-3.9,15.7
				c-3.6,4.3-8.8,6.8-14.4,6.8c-1.2,0-2.5-0.1-3.7-0.4c-7.3-1.4-13.3-7.4-14.7-14.7c-1.1-5.7,0.3-11.3,3.9-15.7
				C86.3,80.9,91.6,78.5,97.2,78.5 M97.2,74.5c-14,0-25.1,12.7-22.3,27.2c1.7,8.9,9,16.2,17.9,17.9c1.5,0.3,3,0.4,4.4,0.4
				c14,0,25.1-12.7,22.3-27.2c-1.7-8.9-9-16.2-17.9-17.9C100.1,74.6,98.7,74.5,97.2,74.5L97.2,74.5z"/>
		</g>
		<path fill="#010202" d="M163.4,104.8h-26.3c-1.1,0-2-0.9-2-2V91.6c0-1.1,0.9-2,2-2h26.3c1.1,0,2,0.9,2,2v11.2
			C165.4,103.9,164.5,104.8,163.4,104.8z"/>
		<path fill="#010202" d="M89.6,163.4v-26.3c0-1.1,0.9-2,2-2h11.2c1.1,0,2,0.9,2,2v26.3c0,1.1-0.9,2-2,2H91.6
			C90.5,165.4,89.6,164.5,89.6,163.4z"/>
		<path fill="#010202" d="M89.6,57.3V31c0-1.1,0.9-2,2-2h11.2c1.1,0,2,0.9,2,2v26.3c0,1.1-0.9,2-2,2H91.6
			C90.5,59.3,89.6,58.4,89.6,57.3z"/>
		<path fill="#010202" d="M57.3,104.8H31c-1.1,0-2-0.9-2-2V91.6c0-1.1,0.9-2,2-2h26.3c1.1,0,2,0.9,2,2v11.2
			C59.3,103.9,58.4,104.8,57.3,104.8z"/>
		<g>
			<path fill="#010202" d="M129.6,64.8L129.6,64.8c-2.8-2.8-2.8-7.3,0-10.1l8.5-8.5c2.8-2.8,7.3-2.8,10.1,0v0
				c2.8,2.8,2.8,7.3,0,10.1l-8.5,8.5C136.9,67.6,132.4,67.6,129.6,64.8z"/>
		</g>
		<g>
			<path fill="#010202" d="M129.6,129.6L129.6,129.6c2.8-2.8,7.3-2.8,10.1,0l8.5,8.5c2.8,2.8,2.8,7.3,0,10.1l0,0
				c-2.8,2.8-7.3,2.8-10.1,0l-8.5-8.5C126.8,136.9,126.8,132.4,129.6,129.6z"/>
		</g>
		<g>
			<path fill="#010202" d="M46.2,46.2L46.2,46.2c-2.8,2.8-2.8,7.3,0,10.1l8.5,8.5c2.8,2.8,7.3,2.8,10.1,0l0,0
				c2.8-2.8,2.8-7.3,0-10.1l-8.5-8.5C53.6,43.5,49,43.5,46.2,46.2z"/>
		</g>
		<g>
			<path fill="#010202" d="M64.8,129.6L64.8,129.6c-2.8-2.8-7.3-2.8-10.1,0l-8.5,8.5c-2.8,2.8-2.8,7.3,0,10.1h0
				c2.8,2.8,7.3,2.8,10.1,0l8.5-8.5C67.6,136.9,67.6,132.4,64.8,129.6z"/>
		</g>
	</g>
</g>
<g id="Lager_94" display="none">
	<path display="inline" fill="#010202" d="M84,53.7c-1.9,6.3-2.4,13-1.5,19.7c2.8,19.9,18.6,35.8,38.6,38.6c2.1,0.3,4.3,0.4,6.5,0.4
		c4.5,0,9-0.7,13.2-1.9c-5.1,16.8-20.1,29.8-37.8,31.9c-1.9,0.2-3.9,0.4-5.8,0.4c-13,0-25.4-5.6-34.1-15.3
		c-8.8-9.9-12.7-22.6-11.1-35.9C54.2,73.7,67.2,58.8,84,53.7 M97.2,36.6c-2.8,0-5.6,0.2-8.4,0.6C61.9,40.8,40.3,62.6,37,89.6
		c-4.5,36.9,24.2,68.2,60.2,68.2c2.5,0,5-0.2,7.6-0.5c26.9-3.3,48.8-24.9,52.4-51.8c0.4-2.9,0.6-5.8,0.6-8.6c0-4.4-3.7-7.4-7.6-7.4
		c-1.6,0-3.2,0.5-4.7,1.6c-5,3.8-11.3,6-18.1,6c-1.4,0-2.9-0.1-4.4-0.3C110,95.1,99.3,84.4,97.5,71.3c-1.2-8.5,1.1-16.3,5.7-22.5
		c3.1-5,0.2-12.2-5.8-12.2C97.4,36.6,97.3,36.6,97.2,36.6L97.2,36.6z"/>
</g>
<g id="Lager_59" display="none">
	<g display="inline">
		<path d="M92.1,155.6c1.4,1.4,3.3,2.2,5.3,2.2c2,0,3.9-0.8,5.3-2.2l22.4-22.7c3-2.9,3-7.7,0-10.6c-3-2.9-7.7-2.9-10.7,0l-9.8,10
			v-8.5v-19c0-4.1-3.3-7.5-7.5-7.5h-0.2c-4.1,0-7.5,3.4-7.5,7.5v19v7.4l-1-0.2l-8.5-8.4c-2.7-2.7-7-3.3-10-1.1
			c-3.9,2.8-4.2,8.2-1,11.5L92.1,155.6z"/>
		<path d="M157.8,85.8c-0.1-2.8-0.4-5.8-0.7-8.7c-2.1-20.6-18.6-37.6-39.1-40.2c-22.2-2.8-41.6,10.6-48.4,30
			c-0.9-0.1-1.7-0.1-2.6-0.1c-16.6,0-30.4,13.6-30.4,30.2v7.5c0,4.1,3.6,7.5,7.7,7.5h0.2c4.1,0,7.3-3.5,7.3-7.7v-6
			c-0.9-9,6.5-16.6,15.3-16.6c0.4,0,0.9,0,1.3,0.1l5.8-0.1c3.4,0.3,6.6-1.2,7.7-4.5l1.6-4.7c4-11.4,14-19.9,26-20.9
			c18.5-1.6,34.5,14,33.3,32.5l0,1.6v19.4h0.1c0.2,3.9,3.7,7.1,7.7,7.1h0.2c3.9,0,6.9-3.2,7.2-7.1h0.1L157.8,85.8L157.8,85.8z"/>
	</g>
</g>
<g id="Lager_60" display="none">
	<g display="inline">
		<path d="M127.5,51.7v-7.7c0-4.1-3.4-7.5-7.5-7.5h-0.2c-4.1,0-7.5,3.4-7.5,7.5v7.7H82.1v-7.7c0-4.1-3.4-7.5-7.5-7.5h-0.2
			c-4.1,0-7.5,3.4-7.5,7.5v7.7H44.2c-4.2,0-7.6,3.4-7.6,7.6v90.9c0,4.2,3.4,7.6,7.6,7.6h106.1c4.2,0,7.6-3.4,7.6-7.6V59.3
			c0-4.2-3.4-7.6-7.6-7.6H127.5z M138.9,142.7H55.5c-2.1,0-3.8-1.7-3.8-3.8V70.7c0-2.1,1.7-3.8,3.8-3.8h18.9h0.2h45.3h0.2h18.9
			c2.1,0,3.8,1.7,3.8,3.8v68.2C142.7,141,141,142.7,138.9,142.7z"/>
		<path d="M116.2,112.4h-11.4V93.4v-7.6c0-2.1-1.7-3.8-3.8-3.8h-7.6H78.3c-2.1,0-3.8,1.7-3.8,3.8v7.6c0,2.1,1.7,3.8,3.8,3.8h11.4
			v15.2H78.3c-2.1,0-3.8,1.7-3.8,3.8v7.6c0,2.1,1.7,3.8,3.8,3.8h15.2h7.6h15.2c2.1,0,3.8-1.7,3.8-3.8v-7.6
			C119.9,114.1,118.3,112.4,116.2,112.4z"/>
	</g>
	<path display="inline" fill="#010202" d="M157.8,66.9H36.6V38.6c0-1.1,0.9-2,2-2h117.3c1.1,0,2,0.9,2,2V66.9z"/>
</g>
<g id="Lager_61" display="none">
	<circle display="inline" cx="74.5" cy="82.1" r="15.2"/>
	<g display="inline">
		<path d="M61.5,155.6L61.5,155.6c-2.9-2.9-2.9-7.7,0-10.6l60.8-60.8c2.9-2.9,7.7-2.9,10.6,0v0c2.9,2.9,2.9,7.7,0,10.6l-60.8,60.8
			C69.2,158.6,64.5,158.6,61.5,155.6z"/>
	</g>
	<g display="inline">
		<path d="M152.7,125.3l-30.5-30.5c-2.9-2.9-2.9-7.6,0-10.6l0,0c2.9-2.9,7.6-2.9,10.6,0l30.5,30.5c2.9,2.9,2.9,7.6,0,10.6l0,0
			C160.3,128.3,155.6,128.3,152.7,125.3z"/>
	</g>
	<path display="inline" d="M157.8,36.6H36.6c-4.2,0-7.6,3.4-7.6,7.6v106.1c0,4.2,3.4,7.6,7.6,7.6h121.3c4.2,0,7.6-3.4,7.6-7.6V44.2
		C165.4,40,162,36.6,157.8,36.6z M150.3,138.9c0,2.1-1.7,3.8-3.8,3.8H51.7h-3.8c-2.1,0-3.8-1.7-3.8-3.8v-3.8V55.5
		c0-2.1,1.7-3.8,3.8-3.8h98.5c2.1,0,3.8,1.7,3.8,3.8V138.9z"/>
</g>
<g id="Lager_62" display="none">
	<g id="Checkmark_1" display="inline">
		<path fill="#010202" d="M87.5,133.6L47.6,94.7c-2.2-2.1-2.2-5.6,0-7.8l8.1-7.8c2.2-2.1,5.8-2.1,8.1,0l27.8,27.3l62-60.7
			c2.2-2.1,5.8-2.1,8.1,0l8.1,7.8c2.2,2.1,2.2,5.6,0,7.8l-74.1,72.4C93.3,135.8,89.7,135.8,87.5,133.6z"/>
	</g>
</g>
<g id="Lager_100" display="none">
	<path display="inline" fill="#010202" d="M151.5,88.6l-10-1.7c-1.2-5-3.1-9.6-5.8-13.8l5.6-7.8c2.1-3,1.8-7.1-0.8-9.7l-1.6-1.6
		c-2.6-2.6-6.7-2.9-9.7-0.8l-7.8,5.6c-4.2-2.6-8.9-4.6-13.8-5.8l-1.7-10c-0.6-3.7-3.8-6.3-7.5-6.3h-2.3c-3.7,0-6.9,2.7-7.5,6.3
		l-1.7,10c-5,1.2-9.6,3.1-13.8,5.8l-7.8-5.6c-3-2.1-7.1-1.8-9.7,0.8l-1.6,1.6c-2.6,2.6-2.9,6.7-0.8,9.7l5.6,7.8
		c-2.6,4.2-4.6,8.9-5.8,13.8l-10,1.7c-3.7,0.6-6.3,3.8-6.3,7.5v2.3c0,3.7,2.7,6.9,6.3,7.5l10,1.7c1.2,5,3.1,9.6,5.8,13.8l-5.6,7.8
		c-2.1,3-1.8,7.1,0.8,9.7l1.6,1.6c2.6,2.6,6.7,2.9,9.7,0.8l7.8-5.6c4.2,2.6,8.9,4.6,13.8,5.8l1.7,10c0.6,3.7,3.8,6.3,7.5,6.3h2.3
		c3.7,0,6.9-2.7,7.5-6.3l1.7-10c5-1.2,9.6-3.1,13.8-5.8l7.8,5.6c3,2.1,7.1,1.8,9.7-0.8l1.6-1.6c2.6-2.6,2.9-6.7,0.8-9.7l-5.6-7.8
		c2.6-4.2,4.6-8.9,5.8-13.8l10-1.7c3.7-0.6,6.3-3.8,6.3-7.5v-2.3C157.8,92.3,155.2,89.2,151.5,88.6z M97.2,119.9
		c-12.6,0-22.7-10.2-22.7-22.7s10.2-22.7,22.7-22.7s22.7,10.2,22.7,22.7S109.8,119.9,97.2,119.9z"/>
</g>
<g id="Lager_64" display="none">
	<g display="inline">
		<path d="M150.8,55.5l-11.9-11.9c-4.7-4.7-10.9-7-17-7c-0.6,0-1.3,0-1.9,0.1v-0.1H97.4H97H74.5v0.1c-0.6,0-1.3-0.1-1.9-0.1
			c-6.2,0-12.3,2.3-17,7L43.7,55.5c-9.5,9.5-9.5,24.8,0,34.2l0.3,0.3c4.7,4.7,10.9,7.1,17.1,7.1c6.2,0,12.4-2.4,17.1-7.1l1.3-1.3
			c4.1,5.1,10.4,8.3,17.5,8.3h0.5c7.1,0,13.4-3.3,17.5-8.3l1.3,1.3c4.7,4.7,10.9,7.1,17.1,7.1c6.2,0,12.4-2.4,17.1-7.1l0.3-0.3
			C160.2,80.3,160.2,65,150.8,55.5z M140,79.1l-0.3,0.3c-1.7,1.7-4,2.7-6.4,2.7c-2.4,0-4.7-0.9-6.4-2.7l-1.3-1.3l-10.7-10.7
			c-0.6-0.6-1.7-0.6-2.2,0.1l-9.5,11.8c-1.4,1.7-3.5,2.7-5.7,2.7H97c-2.2,0-4.3-1-5.7-2.7l-9.4-11.5c-0.7-0.8-1.9-0.9-2.6-0.1
			L68.8,78.1l-1.3,1.3c-1.7,1.7-4,2.7-6.4,2.7c-2.4,0-4.7-0.9-6.4-2.7l-0.3-0.3c-3.5-3.5-3.5-9.3,0-12.8l11.9-11.9
			c2.2-2.3,4.9-2.6,6.3-2.6c0.2,0,1.6-0.1,1.9-0.1h15.2H97h0.5h7.4h15.2c0.2,0,1.6,0.1,1.9,0.1c1.4,0,4.1,0.3,6.3,2.6L140,66.3
			C143.6,69.8,143.6,75.5,140,79.1z"/>
		<path d="M135.2,112.4H135c-4.1,0-7.5,3.4-7.5,7.5v19c0,2.1-1.7,3.8-3.8,3.8H70.7c-2.1,0-3.8-1.7-3.8-3.8v-19
			c0-4.1-3.4-7.5-7.5-7.5h-0.2c-4.1,0-7.5,3.4-7.5,7.5v30.5c0,4.1,3.4,7.5,7.5,7.5h7.7h60.6h7.7c4.1,0,7.5-3.4,7.5-7.5v-30.5
			C142.7,115.7,139.3,112.4,135.2,112.4z"/>
	</g>
</g>
<g id="Lager_67" display="none">
	<path display="inline" d="M97.2,36.6c-29.3,0-53.1,23.6-53.1,52.8c0,41.9,38,63,49.3,67.9c1,0.4,2,0.6,3.1,0.6c0.2,0,0.4,0,0.7-0.1
		c0.2,0,0.4,0.1,0.7,0.1c1,0,2.1-0.2,3.1-0.6c11.3-4.9,49.3-26,49.3-67.9C150.3,60.2,126.5,36.6,97.2,36.6z M97.9,141.9
		c-0.2-0.1-0.5-0.2-0.7-0.3c-0.2,0.1-0.5,0.2-0.7,0.3c-9.7-4.9-37.2-21.5-37.2-52.5c0-20.7,17-37.6,37.9-37.6
		c20.9,0,37.9,16.9,37.9,37.6C135.1,120.3,107.6,137,97.9,141.9z"/>
	<g display="inline">
		<path d="M97.2,78.5c6.2,0,11.2,5,11.2,11.2c0,6.2-5,11.2-11.2,11.2s-11.2-5-11.2-11.2C86.1,83.5,91.1,78.5,97.2,78.5 M97.2,74.5
			c-8.4,0-15.2,6.8-15.2,15.2s6.8,15.2,15.2,15.2s15.2-6.8,15.2-15.2S105.6,74.5,97.2,74.5L97.2,74.5z"/>
	</g>
</g>
<g id="Lager_66" display="none">
	<path display="inline" fill="#010202" d="M97.2,68.1v58.1L81,115.1l-1.9-1.3c-1.3-0.9-2.8-1.3-4.3-1.3h-2.4H55.5
		c-2.1,0-3.8-1.7-3.8-3.8V85.8c0-2.1,1.7-3.8,3.8-3.8h16.8h2.4c1.5,0,3-0.5,4.3-1.3l1.9-1.3L97.2,68.1 M106.7,44.2
		c-0.8,0-1.7,0.2-2.5,0.8L73.3,66.2c-0.6,0.4-1.4,0.7-2.2,0.7h-27c-4.2,0-7.6,3.4-7.6,7.6v45.5c0,4.2,3.4,7.6,7.6,7.6h27
		c0.8,0,1.5,0.2,2.2,0.7l30.8,21.3c0.8,0.5,1.7,0.8,2.5,0.8c3,0,5.7-3,5.7-7.2V51.4C112.4,47.2,109.7,44.2,106.7,44.2L106.7,44.2z"
		/>
	<g display="inline">
		<path fill="#010202" d="M128.8,123.9l-0.3-0.6c-1.9-3.3-0.9-7.5,2.2-9.7c8.4-6.1,12.9-12.1,12.7-17.2c-0.3-6.2-7-12.1-12.4-15.7
			c-2.9-1.9-4-5.8-2.6-9.1l0.3-0.7c1.8-4,6.5-5.5,10.1-3.1c7.6,5,18.4,14.4,19.1,27.7c0.5,10.8-5.9,21.1-19.1,30.6
			C135.4,128.6,130.8,127.5,128.8,123.9z"/>
	</g>
</g>
<g id="Lager_74" display="none">
	<g display="inline">
		<path fill="#010202" d="M89.7,135.1h-6.2c-18-2.9-31.8-18.6-31.8-37.4c0-6.3,1.6-12.2,4.4-17.4l4.7,6.4c3.4,4.7,10.7,3.4,12.2-2.2
			l3.7-13.3l5.1-18.4c1.2-4.4-2.1-8.8-6.7-8.7l-18,0l-13.6,0c-5.6,0-8.9,6.4-5.6,10.9L46.5,67c-6.2,8.7-9.9,19.3-9.9,30.8
			c0,26.5,19.5,48.5,44.9,52.4c0.7,0.1,1.4,0.1,2,0v0.1h6.2c4.1,0,7.5-3.4,7.5-7.5v-0.2C97.2,138.5,93.9,135.1,89.7,135.1z"/>
		<path fill="#010202" d="M148,127.4c6.2-8.7,9.9-19.3,9.9-30.8c0-26.5-19.5-48.5-44.9-52.4c-0.7-0.1-1.4-0.1-2,0v-0.1h-6.2
			c-4.1,0-7.5,3.4-7.5,7.5v0.2c0,4.1,3.4,7.5,7.5,7.5h6.2c18,2.9,31.8,18.6,31.8,37.4c0,6.3-1.6,12.2-4.4,17.4l-4.7-6.4
			c-3.4-4.7-10.7-3.4-12.2,2.2l-3.7,13.3l-5.1,18.4c-1.2,4.4,2.1,8.8,6.7,8.7l18,0l13.6,0c5.6,0,8.9-6.4,5.6-10.9L148,127.4z"/>
	</g>
</g>
<g id="Lager_75" display="none">
	<path display="inline" fill="#E22D2E" d="M97.2,36.6c-33.5,0-60.6,27.1-60.6,60.6s27.1,60.6,60.6,60.6s60.6-27.1,60.6-60.6
		S130.7,36.6,97.2,36.6z M97.2,51.7c9.8,0,18.9,3.2,26.3,8.4l-10.9,10.9c-4.5-2.7-9.8-4.2-15.4-4.2s-10.9,1.6-15.4,4.2L70.9,60.2
		C78.3,54.9,87.4,51.7,97.2,51.7z M112.4,97.2c0,0.8-0.1,1.6-0.2,2.3c-1,6.5-6.1,11.6-12.6,12.6c-0.8,0.1-1.5,0.2-2.3,0.2
		s-1.6-0.1-2.3-0.2c-6.5-1-11.6-6.1-12.6-12.6c-0.1-0.8-0.2-1.5-0.2-2.3s0.1-1.6,0.2-2.3c1-6.5,6.1-11.6,12.6-12.6
		c0.8-0.1,1.5-0.2,2.3-0.2s1.6,0.1,2.3,0.2c6.5,1,11.6,6.1,12.6,12.6C112.3,95.6,112.4,96.4,112.4,97.2z M51.7,97.2
		c0-9.8,3.2-18.9,8.4-26.3l10.9,10.9c-2.7,4.5-4.2,9.8-4.2,15.4s1.6,10.9,4.2,15.4l-10.9,10.9C54.9,116.1,51.7,107,51.7,97.2z
		 M97.2,142.7c-9.8,0-18.9-3.2-26.3-8.4l10.9-10.9c4.5,2.7,9.8,4.2,15.4,4.2s10.9-1.6,15.4-4.2l10.9,10.9
		C116.1,139.5,107,142.7,97.2,142.7z M134.2,123.5l-10.9-10.9c2.7-4.5,4.2-9.8,4.2-15.4s-1.6-10.9-4.2-15.4l10.9-10.9
		c5.3,7.4,8.4,16.5,8.4,26.3S139.5,116.1,134.2,123.5z"/>
</g>
<g id="Lager_76" display="none">
	<g display="inline">
		<path fill="#010202" d="M157.8,44.1c0-4.1-3.4-7.5-7.5-7.5h-11.4H51.7h-7.7c-4.1,0-7.5,3.4-7.5,7.5v0.2c0,4.1,3.4,7.5,7.5,7.5h7.7
			v30.3v7.6v22.7v0.2c0,8.3,6.7,15,15,15h0.2h83.4c4.1,0,7.5-3.4,7.5-7.5v-0.2c0-4.1-3.4-7.5-7.5-7.5H74.5c-4.2,0-7.6-3.4-7.6-7.6
			v-7.6h83.4c4.2,0,7.6-3.4,7.6-7.6V55.3v-3.6v-3.8v-3.6h0c0-0.1,0-0.1,0-0.2V44.1z M142.7,82.1H66.9V51.7h72h3.8V82.1z"/>
		<circle fill="#010202" cx="74.5" cy="150.3" r="7.6"/>
		<circle fill="#010202" cx="135.1" cy="150.3" r="7.6"/>
	</g>
</g>
<g id="Lager_77" display="none">
	<g display="inline">
		<path fill="#010202" d="M150.3,59.3c-0.8,0-1.6,0.1-2.4,0.4l-20.3,7.3v-7.8c0-4.2-3.4-7.6-7.6-7.6H82.1H44.2
			c-4.2,0-7.6,3.4-7.6,7.6v75.8c0,4.2,3.4,7.6,7.6,7.6h37.9h37.9c4.2,0,7.6-3.4,7.6-7.6v-7.8l20.3,7.3c0.8,0.3,1.6,0.4,2.4,0.4
			c4,0,7.6-3.5,7.6-8.2V67.5C157.8,62.9,154.3,59.3,150.3,59.3z M112.4,78.5v37.4v7.8c0,2.1-1.7,3.8-3.8,3.8H82.1H55.5
			c-2.1,0-3.8-1.7-3.8-3.8V70.7c0-2.1,1.7-3.8,3.8-3.8h26.5h26.5c2.1,0,3.8,1.7,3.8,3.8V78.5z M142.7,116.7l-15.2-5.5v-28l15.2-5.5
			V116.7z"/>
		<path fill="#010202" d="M85.8,82.1H70.7c-2.1,0-3.8,1.7-3.8,3.8v7.6c0,2.1,1.7,3.8,3.8,3.8h15.2c2.1,0,3.8-1.7,3.8-3.8v-7.6
			C89.6,83.7,87.9,82.1,85.8,82.1z"/>
	</g>
</g>
<g id="Layer_77" display="none">
	<g display="inline">
		<path d="M73,102.6l-0.1-0.1c-2.9-2.9-2.9-7.6,0-10.5L111,53.9c2.9-2.9,7.6-2.9,10.5,0l0.1,0.1c2.9,2.9,2.9,7.6,0,10.5l-38.1,38.1
			C80.5,105.5,75.8,105.5,73,102.6z"/>
	</g>
	<g display="inline">
		<path d="M72.9,91.9l0.1-0.1c2.9-2.9,7.6-2.9,10.5,0l38.1,38.1c2.9,2.9,2.9,7.6,0,10.5l-0.1,0.1c-2.9,2.9-7.6,2.9-10.5,0
			l-38.1-38.1C70,99.5,70,94.8,72.9,91.9z"/>
	</g>
</g>
<g id="Lager_80" display="none">
	<path display="inline" d="M127.5,119.9v18.9c0,2.1-1.7,3.8-3.8,3.8H55.5c-2.1,0-3.8-1.7-3.8-3.8V70.7c0-2.1,1.7-3.8,3.8-3.8h18.9
		c4.2,0,7.6-3.4,7.6-7.6v0c0-4.2-3.4-7.6-7.6-7.6H47.9c-6.3,0-11.4,5.1-11.4,11.4v83.4c0,6.3,5.1,11.4,11.4,11.4h83.4
		c6.3,0,11.4-5.1,11.4-11.4v-26.5c0-4.2-3.4-7.6-7.6-7.6h0C130.9,112.4,127.5,115.8,127.5,119.9z"/>
	<path display="inline" d="M99.2,51.7h56.6c1.1,0,2-0.9,2-2V38.6c0-1.1-0.9-2-2-2H99.2c-1.1,0-2,0.9-2,2v11.2
		C97.2,50.8,98.1,51.7,99.2,51.7z"/>
	<path display="inline" d="M142.7,38.6v56.6c0,1.1,0.9,2,2,2h11.2c1.1,0,2-0.9,2-2V38.6c0-1.1-0.9-2-2-2h-11.2
		C143.6,36.6,142.7,37.5,142.7,38.6z"/>
	<g display="inline">
		<path d="M69.1,125.3L69.1,125.3c-2.9-2.9-2.9-7.7,0-10.6L145,38.8c2.9-2.9,7.7-2.9,10.6,0v0c2.9,2.9,2.9,7.7,0,10.6l-75.9,75.9
			C76.8,128.3,72,128.3,69.1,125.3z"/>
	</g>
</g>
<g id="Lager_83" display="none">
	<g display="inline">
		<path d="M97.2,61.7c19.4,0,38.6,12.2,55.9,35.5c-17.3,23.2-36.6,35.5-55.9,35.5s-38.6-12.2-55.9-35.5C58.6,74,77.8,61.7,97.2,61.7
			 M97.2,51.7c-23.8,0-47.6,15.2-68.2,45.5l0,11.4l0-11.4c20.7,30.3,44.4,45.5,68.2,45.5s47.6-15.2,68.2-45.5l0,11.4l0-11.4
			C144.8,66.9,121,51.7,97.2,51.7L97.2,51.7z"/>
	</g>
	<circle display="inline" cx="97.2" cy="97.2" r="15.2"/>
</g>
<g id="Lager_84" display="none">
	<path display="inline" d="M128.8,54.8l10.8,10.8l-45.1,46.7H82.1V99.9L128.8,54.8 M128.9,36.6c-1.9,0-3.9,0.7-5.3,2.2L66.9,93.4
		v34.1H101v0l54.6-56.7c3-3,3-7.7,0-10.7l-21.4-21.4C132.8,37.3,130.8,36.6,128.9,36.6L128.9,36.6z"/>
	<path display="inline" d="M142.7,138.9c0,2.1-1.7,3.8-3.8,3.8H55.5c-2.1,0-3.8-1.7-3.8-3.8V55.5c0-2.1,1.7-3.8,3.8-3.8h18.9
		c4.2,0,7.6-3.4,7.6-7.6v0c0-4.2-3.4-7.6-7.6-7.6H44.2c-4.2,0-7.6,3.4-7.6,7.6v106.1c0,4.2,3.4,7.6,7.6,7.6h106.1
		c4.2,0,7.6-3.4,7.6-7.6v-30.3c0-4.2-3.4-7.6-7.6-7.6h0c-4.2,0-7.6,3.4-7.6,7.6V138.9z"/>
</g>
<g id="Lager_85" display="none">
	<path display="inline" d="M135.1,74.5h-22.6v0c0,0-0.1,0-0.1,0h-12.2l25.2-25.2c2.9-2.9,2.9-7.6,0-10.5l-0.1-0.1
		c-2.9-2.9-7.6-2.9-10.5,0L77.5,76c-0.3,0.2-0.5,0.4-0.8,0.6l0,0c0,0,0,0,0,0l0,0c-0.3,0.3-0.5,0.5-0.7,0.8
		c-0.1,0.1-0.1,0.2-0.2,0.3c-0.9,1.3-1.3,2.7-1.3,4.2c0,0,0,0,0,0s0,0,0,0c0,1.5,0.4,2.9,1.3,4.2c0.1,0.1,0.1,0.2,0.2,0.2
		c0.2,0.3,0.4,0.6,0.7,0.8l0,0c0,0,0,0,0,0l0,0c0.2,0.2,0.5,0.4,0.8,0.6l37.3,37.3c2.9,2.9,7.6,2.9,10.5,0l0.1-0.1
		c2.9-2.9,2.9-7.6,0-10.5l-25.2-25.2h12.2c0,0,0.1,0,0.1,0v0h22.6c12.5,0,22.7,10.2,22.7,22.7v22.7c0,4.2,3.4,7.6,7.6,7.6
		c4.2,0,7.6-3.4,7.6-7.6v-22.7C173,91.4,156,74.5,135.1,74.5z"/>
	<g display="inline">
		<path d="M38.9,87.5l-0.1-0.1c-2.9-2.9-2.9-7.6,0-10.5l38.1-38.1c2.9-2.9,7.6-2.9,10.5,0l0.1,0.1c2.9,2.9,2.9,7.6,0,10.5L49.3,87.5
			C46.4,90.4,41.7,90.4,38.9,87.5z"/>
	</g>
	<g display="inline">
		<path d="M38.7,76.7l0.1-0.1c2.9-2.9,7.6-2.9,10.5,0l38.1,38.1c2.9,2.9,2.9,7.6,0,10.5l-0.1,0.1c-2.9,2.9-7.6,2.9-10.5,0L38.7,87.2
			C35.9,84.3,35.9,79.6,38.7,76.7z"/>
	</g>
</g>
<g id="Lager_86" display="none">
	<path display="inline" d="M99.4,60.9l40.1,40.1l-40.1,40.1c-3,3-3,7.8,0,10.7c3,3,7.8,3,10.7,0l45.4-45.4c1.5-1.5,2.2-3.4,2.2-5.4
		c0-1.9-0.7-3.9-2.2-5.4l-45.4-45.4c-3-3-7.8-3-10.7,0C96.5,53.1,96.5,57.9,99.4,60.9z"/>
	<path display="inline" d="M38.6,93.4h104.1v15.2H38.6c-1.1,0-2-0.9-2-2V95.4C36.6,94.3,37.5,93.4,38.6,93.4z"/>
</g>
<g id="Lager_87" display="none">
	<path display="inline" d="M49.7,157.8H38.6c-1.1,0-2-0.9-2-2V38.6c0-1.1,0.9-2,2-2h11.2c1.1,0,2,0.9,2,2v117.3
		C51.7,156.9,50.8,157.8,49.7,157.8z"/>
	<path display="inline" d="M150.3,36.6H74.5c-4.2,0-7.6,3.4-7.6,7.6v60.6c0,4.2,3.4,7.6,7.6,7.6h75.8c4.2,0,7.6-3.4,7.6-7.6V44.2
		C157.8,40,154.4,36.6,150.3,36.6z M142.7,93.4c0,2.1-1.7,3.8-3.8,3.8H85.8c-2.1,0-3.8-1.7-3.8-3.8V55.5c0-2.1,1.7-3.8,3.8-3.8h53.1
		c2.1,0,3.8,1.7,3.8,3.8V93.4z"/>
</g>
<g id="Lager_88" display="none">
	<path display="inline" d="M82.1,51.7c16.7,0,30.3,13.6,30.3,30.3c0,6.3-1.9,12.4-5.6,17.5l-3,4.2l-4.2,3
		c-5.2,3.7-11.2,5.6-17.5,5.6c-16.7,0-30.3-13.6-30.3-30.3S65.3,51.7,82.1,51.7 M82.1,36.6c-25.1,0-45.5,20.4-45.5,45.5
		c0,25.1,20.4,45.5,45.5,45.5c9.8,0,18.9-3.1,26.3-8.4l36.5,36.5c1.5,1.5,3.4,2.2,5.4,2.2s3.9-0.7,5.4-2.2c3-3,3-7.8,0-10.7
		l-36.5-36.5c5.3-7.4,8.4-16.5,8.4-26.3C127.5,56.9,107.2,36.6,82.1,36.6L82.1,36.6z"/>
</g>
<g id="Lager_89" display="none">
	<g display="inline">
		<path d="M142.1,78.5c1.6,0,2.6,0.9,3,1.4c0.9,1,1.3,2.5,1.1,3.9l-15,66l0,0.1l0,0.1c-0.4,2.2-2.1,3.8-4.1,3.8H67.4
			c-2,0-3.7-1.6-4.1-3.8l0-0.1l0-0.1l-15-66c-0.2-1.4,0.2-2.8,1.1-3.9c0.5-0.5,1.5-1.4,3-1.4H142.1 M142.1,74.5H52.3
			c-5,0-8.9,4.8-8.1,10l15,66.1c0.7,4.2,4.1,7.2,8.1,7.2h59.7c4,0,7.4-3,8.1-7.2l15-66.1C151,79.3,147.1,74.5,142.1,74.5L142.1,74.5
			z"/>
	</g>
	<path display="inline" d="M163.4,59.3H31c-1.1,0-2-0.9-2-2V46.2c0-1.1,0.9-2,2-2h132.4c1.1,0,2,0.9,2,2v11.2
		C165.4,58.4,164.5,59.3,163.4,59.3z"/>
	<path display="inline" d="M112.4,44.2H82.1v-5.6c0-1.1,0.9-2,2-2h26.3c1.1,0,2,0.9,2,2V44.2z"/>
</g>
<g id="Lager_90">
	<path fill="#E64854" d="M139.3,77.9v68.9H55.2V77.9H139.3 M148.3,66.9H46.2c-1.1,0-2,0.9-2,2v86.9c0,1.1,0.9,2,2,2h102.1
		c1.1,0,2-0.9,2-2V68.9C150.3,67.8,149.4,66.9,148.3,66.9L148.3,66.9z"/>
	<path fill="#E64854" d="M116.5,47.6v23.5H77.9V47.6H116.5 M125.5,36.6H68.9c-1.1,0-2,0.9-2,2v43.5h60.6V38.6
		C127.5,37.5,126.6,36.6,125.5,36.6L125.5,36.6z"/>
	<path fill="#E64854" d="M165.4,82.1H29V68.9c0-1.1,0.9-2,2-2h132.4c1.1,0,2,0.9,2,2V82.1z"/>
	<path fill="#E64854" d="M88.6,127.5H75.5c-0.6,0-1-0.4-1-1V98.2c0-0.6,0.4-1,1-1h13.2c0.6,0,1,0.4,1,1v28.3
		C89.6,127.1,89.2,127.5,88.6,127.5z"/>
	<path fill="#E64854" d="M118.9,127.5h-13.2c-0.6,0-1-0.4-1-1V98.2c0-0.6,0.4-1,1-1h13.2c0.6,0,1,0.4,1,1v28.3
		C119.9,127.1,119.5,127.5,118.9,127.5z"/>
</g>
<g id="Lager_91" display="none">
	<path display="inline" d="M150.3,51.7H44.2c-4.2,0-7.6,3.4-7.6,7.6v13.5v62.3c0,4.2,3.4,7.6,7.6,7.6h106.1c4.2,0,7.6-3.4,7.6-7.6
		V72.8V59.3C157.8,55.1,154.4,51.7,150.3,51.7z M139.8,66.9l-42.6,29l-42.6-29H139.8z M142.7,123.7c0,2.1-1.7,3.8-3.8,3.8H55.5
		c-2.1,0-3.8-1.7-3.8-3.8V83.1l41.7,28.2c1.2,0.7,2.5,1.1,3.8,1.1s2.6-0.4,3.8-1.1l41.7-28.2V123.7z"/>
</g>
<g id="Lager_101" display="none">
	<path display="inline" fill="none" stroke="#000000" stroke-width="4" stroke-miterlimit="10" d="M180.6,59.3"/>
	<path display="inline" d="M92.5,51.7L137,96.3c1.5,1.5,1.5,3.9,0,5.4L101.6,137c-1.5,1.5-3.9,1.5-5.4,0L51.7,92.5V55.5
		c0-2.1,1.7-3.8,3.8-3.8h12.2H92.5 M95.6,36.6H67.7H44.4c-4.3,0-7.8,3.5-7.8,7.8v51.2c0,2.1,0.8,4,2.3,5.5l54.6,54.5
		c1.5,1.5,3.5,2.3,5.5,2.3s4-0.8,5.5-2.3l51.1-51.1c3-3,3-8,0-11l-54.5-54.6C99.6,37.4,97.7,36.6,95.6,36.6L95.6,36.6z"/>
	<circle display="inline" cx="78.3" cy="78.3" r="11.4"/>
</g>
<g id="Lager_102" display="none">
	<path display="inline" fill="#010202" d="M135.1,51.7c10.4,0,18.9,10.2,18.9,22.7c0,23.9-28.9,43.3-45.5,51.5
		C92,117.8,63.1,98.4,63.1,74.5c0-12.5,8.5-22.7,18.9-22.7c4.9,0,10.2,3.3,14.3,8.9l6.1,6.7c3,4.2,9.2,4.2,12.3,0l6.1-6.7
		C124.9,55.1,130.2,51.7,135.1,51.7 M135.1,36.6c-10.7,0-20.3,6.6-26.5,15.2c-6.3-8.6-15.8-15.2-26.5-15.2
		c-18.8,0-34.1,17-34.1,37.9c0,43.3,60.6,68.2,60.6,68.2s60.6-24.9,60.6-68.2C169.2,53.5,153.9,36.6,135.1,36.6L135.1,36.6z"/>
</g>
<g id="Lager_104" display="none">
	<path display="inline" d="M119.9,51.7H44.2c-4.2,0-7.6,3.4-7.6,7.6v75.8c0,4.2,3.4,7.6,7.6,7.6h75.8c4.2,0,7.6-3.4,7.6-7.6V59.3
		C127.5,55.1,124.1,51.7,119.9,51.7z M108.6,127.5H55.5c-2.1,0-3.8-1.7-3.8-3.8V70.7c0-2.1,1.7-3.8,3.8-3.8h49.3h3.8
		c2.1,0,3.8,1.7,3.8,3.8v3.8v49.3C112.4,125.8,110.7,127.5,108.6,127.5z"/>
	<path display="inline" d="M157.8,78.3v37.9l-30.3-12.5V90.7L157.8,78.3 M165.4,59.3c-0.9,0-1.8,0.2-2.7,0.5l-50.4,20.7v33.3
		l50.4,20.7c0.9,0.4,1.8,0.5,2.7,0.5c4,0,7.6-3.6,7.6-8.3V67.6C173,62.9,169.4,59.3,165.4,59.3L165.4,59.3z"/>
</g>
<g id="Lager_105" display="none">
	<g display="inline">
		<g>
			<path fill="#010202" d="M55.5,104.8c-0.3,0.1-0.3,0.2-0.2,0.2c0,0,0.1,0,0.2,0V104.8L55.5,104.8z"/>
		</g>
		<g>
			<path fill="#010202" d="M97,131.5v11.2v4h4h7.6c4.7,0,8.8,3,10.4,7.2H67.8c1.6-4.2,5.7-7.2,10.4-7.2h7.6h4v-4v-11.2h3.6H97
				 M101,127.5h-7.6h-7.6v15.2h-7.6c-8.4,0-15.2,6.8-15.2,15.2h60.6c0-8.4-6.8-15.2-15.2-15.2H101V127.5L101,127.5z"/>
		</g>
		<g>
			<path fill="#010202" d="M131.3,104.8v0.1c0.1,0,0.1,0,0.2,0C131.6,105,131.6,104.9,131.3,104.8L131.3,104.8z"/>
		</g>
		<g>
			<path fill="#010202" d="M123.7,40.6c2,0,3.6,1.6,3.6,3.6v7.6v4h4h22.7c2,0,3.6,1.6,3.6,3.6v15.2c0,6.1-2.2,12.5-6,17.2
				c-4.8,6-11.6,9.1-20.4,9.1h-3.2h-2.6l-1,2.4c-5.4,12.4-17.6,20.3-31.1,20.3s-25.7-8-31.1-20.3l-1-2.4h-2.6h-3.2
				c-8.7,0-15.6-3.1-20.4-9.1c-3.7-4.7-6-11.1-6-17.2V59.3c0-2,1.6-3.6,3.6-3.6h22.7h4v-4v-7.6c0-2,1.6-3.6,3.6-3.6H123.7
				 M127.3,93.6h4c14.1,0,19.2-10.3,19.2-19.2v-7.6v-4h-4h-15.2h-4v4v22.7V93.6 M55.5,93.6h4v-4V66.9v-4h-4H40.4h-4v4v7.6v0l0,0
				C36.5,83.3,41.6,93.6,55.5,93.6 M123.7,36.6H63.1c-4.2,0-7.6,3.4-7.6,7.6v7.6H32.8c-4.2,0-7.6,3.4-7.6,7.6v15.2
				c0,12.2,8.1,30.3,30.3,30.3h3.2c5.8,13.4,19.2,22.7,34.7,22.7c15.5,0,28.9-9.4,34.7-22.7h3.2c22.2,0,30.3-18.1,30.3-30.3V59.3
				c0-4.2-3.4-7.6-7.6-7.6h-22.7v-7.6C131.3,40,127.9,36.6,123.7,36.6L123.7,36.6z M131.3,89.6V66.9h15.2v7.6
				C146.5,77,145.7,89.6,131.3,89.6L131.3,89.6z M55.5,89.6c-13.8,0-15.1-11.6-15.2-15.2v-7.6h15.2V89.6L55.5,89.6z"/>
		</g>
	</g>
</g>
<g id="Lager_106" display="none">
	<g display="inline">
		<path fill="#0C070E" d="M146.5,40.6c2.3,0,4.4,1,5.8,2.8c1.4,1.8,1.9,4.1,1.3,6.4l-9,37.8c-0.8,3.3-3.7,5.7-7.2,5.7H55.7V51.7v-4
			h-4h-7.6c-2,0-3.6-1.6-3.6-3.6s1.6-3.6,3.6-3.6h7.6h7.6H146.5 M146.5,36.6H59.3h-7.6h-7.6c-4.2,0-7.6,3.4-7.6,7.6v0
			c0,4.2,3.4,7.6,7.6,7.6h7.6v45.5h85.7c5.3,0,9.8-3.6,11.1-8.7l9-37.8C159.3,43.5,153.9,36.6,146.5,36.6L146.5,36.6z"/>
	</g>
	<path display="inline" fill="#0C070E" d="M66.9,112.4V97.2H51.7v18.9c0,6.3,5.1,11.4,11.4,11.4h0h3.8h75.8c4.2,0,7.6-3.4,7.6-7.6v0
		c0-4.2-3.4-7.6-7.6-7.6H66.9z"/>
	<circle display="inline" fill="#0C070E" cx="70.7" cy="146.5" r="11.4"/>
	<circle display="inline" fill="#0C070E" cx="131.3" cy="146.5" r="11.4"/>
</g>
<g id="Lager_107" display="none">
	<g display="inline">
		<path fill="#010202" d="M97.2,48.2c11.7,0,23.1,4.2,33.9,12.4c11.1,8.4,21.1,20.7,29.7,36.6c-8.7,15.9-18.7,28.2-29.7,36.6
			c-10.9,8.3-22.3,12.4-33.9,12.4s-23.1-4.2-33.9-12.4c-11.1-8.4-21.1-20.7-29.7-36.6C42.2,81.3,52.2,69,63.3,60.6
			C74.1,52.3,85.6,48.2,97.2,48.2 M97.2,44.2c-24.7,0-49.5,17.7-68.2,53.1l0,0h0c18.8,35.4,43.5,53.1,68.2,53.1s49.5-17.7,68.2-53.1
			v0C146.7,61.8,121.9,44.2,97.2,44.2L97.2,44.2z"/>
	</g>
	<circle display="inline" fill="#010202" cx="97.2" cy="97.2" r="15.2"/>
</g>
<g id="Lager_108" display="none">
	<circle display="inline" fill="#010202" cx="97.2" cy="59.3" r="22.7"/>
	<path display="inline" fill="#010202" d="M102.8,127.5H91.6c-1.1,0-2-0.9-2-2V74.5h15.2v51.1C104.8,126.6,103.9,127.5,102.8,127.5z
		"/>
	<path display="inline" fill="#010202" d="M150.3,82.1h-15.2c-4.2,0-7.6,3.4-7.6,7.6v0c0,4.2,3.4,7.6,7.6,7.6h3.8
		c2.1,0,3.8,1.7,3.8,3.8v37.9c0,2.1-1.7,3.8-3.8,3.8H55.5c-2.1,0-3.8-1.7-3.8-3.8V101c0-2.1,1.7-3.8,3.8-3.8h3.8
		c4.2,0,7.6-3.4,7.6-7.6v0c0-4.2-3.4-7.6-7.6-7.6H44.2c-4.2,0-7.6,3.4-7.6,7.6v60.6c0,4.2,3.4,7.6,7.6,7.6h106.1
		c4.2,0,7.6-3.4,7.6-7.6V89.6C157.8,85.4,154.4,82.1,150.3,82.1z"/>
</g>
<g id="Lager_110" display="none">
	<path display="inline" fill="#010202" d="M119.9,157.8H74.5v-12.2c0-1.7,1.3-3,3-3h39.5c1.7,0,3,1.3,3,3V157.8z"/>
	<path display="inline" fill="#010202" d="M150.3,36.6H44.2c-4.2,0-7.6,3.4-7.6,7.6v90.9c0,4.2,3.4,7.6,7.6,7.6h106.1
		c4.2,0,7.6-3.4,7.6-7.6V44.2C157.8,40,154.4,36.6,150.3,36.6z M142.7,123.7c0,2.1-1.7,3.8-3.8,3.8H55.5c-2.1,0-3.8-1.7-3.8-3.8
		V55.5c0-2.1,1.7-3.8,3.8-3.8h72h11.4c2.1,0,3.8,1.7,3.8,3.8v7.6v7.1V123.7z"/>
</g>
<g id="Lager_111" display="none">
	<rect display="inline" fill="#61BEB1" width="200" height="200"/>
	<g display="inline">
		<rect x="85.7" y="78.5" fill="#FFFFFF" width="7.2" height="14.3"/>
		<rect x="78.5" y="85.7" fill="#FFFFFF" width="42.9" height="7.2"/>
		<path fill="#FFFFFF" d="M125.1,71.4H74.9c-2,0-3.6,1.6-3.6,3.6v50.1c0,2,1.6,3.6,3.6,3.6h50.1c2,0,3.6-1.6,3.6-3.6V74.9
			C128.6,73,127,71.4,125.1,71.4z M121.5,119.7c0,1-0.8,1.8-1.8,1.8H80.3c-1,0-1.8-0.8-1.8-1.8V80.3c0-1,0.8-1.8,1.8-1.8h37.6h3.6
			v3.6V119.7z"/>
	</g>
	
		<path display="inline" opacity="0.5" fill="none" stroke="#FFFFFF" stroke-width="2" stroke-linejoin="round" stroke-miterlimit="10" stroke-dasharray="14,14" d="
		M151.2,156H48.8c-2.6,0-4.8-2.1-4.8-4.8V48.8c0-2.6,2.1-4.8,4.8-4.8h102.5c2.6,0,4.8,2.1,4.8,4.8v102.5
		C156,153.9,153.9,156,151.2,156z"/>
</g>
<g id="Lager_112" display="none">
	<path display="inline" d="M165.4,36.6H89.6c-4.2,0-7.6,3.4-7.6,7.6v22.7H44.2c-4.2,0-7.6,3.4-7.6,7.6v75.8c0,4.2,3.4,7.6,7.6,7.6
		h75.8c4.2,0,7.6-3.4,7.6-7.6v-22.7h37.9c4.2,0,7.6-3.4,7.6-7.6V44.2C173,40,169.6,36.6,165.4,36.6z M112.4,89.6v15.2v7.6v15.2v3.8
		v7.6c0,2.1-1.7,3.8-3.8,3.8H55.5c-2.1,0-3.8-1.7-3.8-3.8V85.8c0-2.1,1.7-3.8,3.8-3.8h22.7h3.8h15.2h7.6h3.8c2.1,0,3.8,1.7,3.8,3.8
		V89.6z M157.8,59.3v49.3c0,2.1-1.7,3.8-3.8,3.8h-26.5V74.5c0-4.2-3.4-7.6-7.6-7.6H97.2V55.5c0-2.1,1.7-3.8,3.8-3.8h49.3h3.8
		c2.1,0,3.8,1.7,3.8,3.8V59.3z"/>
</g>
<g id="Lager_113" display="none">
	<g display="inline">
		<path d="M159,48.2c5.5,0,10,4.5,10,10v78.1c0,5.5-4.5,10-10,10H35.4c-5.5,0-10-4.5-10-10V58.2c0-5.5,4.5-10,10-10H159 M159,44.2
			H35.4c-7.7,0-14,6.3-14,14v78.1c0,7.7,6.3,14,14,14H159c7.7,0,14-6.3,14-14V58.2C173,50.4,166.7,44.2,159,44.2L159,44.2z"/>
	</g>
	<circle display="inline" cx="74.5" cy="97.2" r="22.7"/>
</g>
<g id="Lager_114" display="none">
	<path display="inline" d="M97.2,36.6C59.5,36.6,29,67.1,29,104.8c0,4.2,3.4,7.6,7.6,7.6s7.6-3.4,7.6-7.6
		c0-29.3,23.8-53.1,53.1-53.1s53.1,23.8,53.1,53.1c0,4.2,3.4,7.6,7.6,7.6c4.2,0,7.6-3.4,7.6-7.6C165.4,67.1,134.9,36.6,97.2,36.6z"
		/>
	<g display="inline">
		<path d="M97.2,101.2c14.5,0,26.3,11.8,26.3,26.3s-11.8,26.3-26.3,26.3S70.9,142,70.9,127.5S82.7,101.2,97.2,101.2 M97.2,97.2
			c-16.7,0-30.3,13.6-30.3,30.3s13.6,30.3,30.3,30.3s30.3-13.6,30.3-30.3S114,97.2,97.2,97.2L97.2,97.2z"/>
	</g>
	<path display="inline" d="M102.8,66.9H91.6c-1.1,0-2,0.9-2,2v40.2h15.2V68.9C104.8,67.8,103.9,66.9,102.8,66.9z"/>
</g>
<g id="Lager_115" display="none">
	<path display="inline" fill="#010202" d="M89.6,66.2l52.4,31l-52.4,31V66.2 M82.1,44.2c-4.2,0-7.6,3.4-7.6,7.6v90.9
		c0,4.2,3.4,7.6,7.6,7.6l80.1-47.3c2-1.2,3.3-3.4,3.3-5.7s-1.2-4.5-3.3-5.7L82.1,44.2L82.1,44.2z"/>
	<path display="inline" fill="#010202" d="M74.5,110.3l-30.3,17.9V66.2l30.3,17.9V66.9h0.6L36.6,44.2c-4.2,0-7.6,3.4-7.6,7.6v90.9
		c0,4.2,3.4,7.6,7.6,7.6l37.9-22.4V110.3z"/>
	<path display="inline" fill="#010202" d="M163.4,150.3h-11.2c-1.1,0-2-0.9-2-2V46.2c0-1.1,0.9-2,2-2h11.2c1.1,0,2,0.9,2,2v102.1
		C165.4,149.4,164.5,150.3,163.4,150.3z"/>
</g>
<g id="Lager_116" display="none">
	<g display="inline">
		<path fill="#010202" d="M161.4,48.2v98.1H33V48.2H161.4 M163.4,44.2H31c-1.1,0-2,0.9-2,2v102.1c0,1.1,0.9,2,2,2h132.4
			c1.1,0,2-0.9,2-2V46.2C165.4,45.1,164.5,44.2,163.4,44.2L163.4,44.2z"/>
	</g>
	<rect x="59.3" y="44.2" display="inline" fill-rule="evenodd" clip-rule="evenodd" fill="#010202" width="15.2" height="106.1"/>
	<rect x="119.9" y="44.2" display="inline" fill-rule="evenodd" clip-rule="evenodd" fill="#010202" width="15.2" height="106.1"/>
	<rect x="44.2" y="74.5" display="inline" fill-rule="evenodd" clip-rule="evenodd" fill="#010202" width="15.2" height="15.2"/>
	<rect x="44.2" y="104.8" display="inline" fill-rule="evenodd" clip-rule="evenodd" fill="#010202" width="15.2" height="15.2"/>
	<rect x="135.1" y="74.5" display="inline" fill-rule="evenodd" clip-rule="evenodd" fill="#010202" width="15.2" height="15.2"/>
	<rect x="135.1" y="104.8" display="inline" fill-rule="evenodd" clip-rule="evenodd" fill="#010202" width="15.2" height="15.2"/>
</g>
<g id="Lager_98" display="none">
	<path display="inline" fill="#010202" d="M97.2,52.5l51.4,36.3c1,0.7,1.6,1.9,1.6,3.1v47c0,2.1-1.7,3.8-3.8,3.8H47.9
		c-2.1,0-3.8-1.7-3.8-3.8v-47c0-1.2,0.6-2.4,1.6-3.1L97.2,52.5 M98.6,36.6h-2.8c-1.6,0-3.1,0.5-4.4,1.4L32.2,79.8
		c-2,1.4-3.2,3.7-3.2,6.2v64.3c0,4.2,3.4,7.6,7.6,7.6h121.3c4.2,0,7.6-3.4,7.6-7.6V86c0-2.5-1.2-4.8-3.2-6.2L103,38
		C101.7,37.1,100.2,36.6,98.6,36.6L98.6,36.6z"/>
	<path display="inline" fill-rule="evenodd" clip-rule="evenodd" fill="#010202" d="M88.6,97.2H60.3c-0.6,0-1,0.4-1,1v59.6h30.3
		V98.2C89.6,97.7,89.2,97.2,88.6,97.2z"/>
	<path display="inline" fill-rule="evenodd" clip-rule="evenodd" fill="#010202" d="M134.1,112.4h-28.3c-0.6,0-1-0.4-1-1V98.2
		c0-0.6,0.4-1,1-1h28.3c0.6,0,1,0.4,1,1v13.2C135.1,111.9,134.7,112.4,134.1,112.4z"/>
</g>
</svg>
